<svg width="74" height="69" viewBox="0 0 74 69" fill="none" xmlns="http://www.w3.org/2000/svg">
<g clip-path="url(#clip0)">
<path d="M6.0277 21.373C5.91325 21.3237 5.82573 21.2811 5.7629 21.2475C5.70035 21.2145 5.64165 21.1747 5.58786 21.1288C5.53569 21.0833 5.49233 21.0286 5.45995 20.9675C5.40523 20.8621 5.38409 20.7425 5.39936 20.6248C5.41962 20.4694 5.4643 20.3182 5.53176 20.1768C5.58948 20.0356 5.66982 19.9047 5.76963 19.7892C5.84781 19.7046 5.94804 19.6433 6.05911 19.6122C6.15479 19.5876 6.25517 19.5876 6.35084 19.6122C6.48438 19.6521 6.61487 19.7015 6.7413 19.7601L7.52897 20.1095C7.65679 20.165 7.78052 20.2293 7.89924 20.3022C7.98407 20.3578 8.0523 20.4351 8.09671 20.5262C8.1496 20.6322 8.1699 20.7515 8.15506 20.8689C8.13682 21.0203 8.09439 21.1678 8.02939 21.3058C7.96969 21.4483 7.8879 21.5806 7.78703 21.6978C7.70872 21.787 7.60562 21.8509 7.49082 21.8815C7.42506 21.8993 7.3564 21.9039 7.28885 21.8949C7.21846 21.886 7.14924 21.8694 7.0824 21.8456C7.01508 21.821 6.92532 21.7829 6.81087 21.7314L6.0277 21.373ZM6.2521 20.8129L7.07791 21.1803C7.16888 21.2282 7.27164 21.2492 7.37413 21.2408C7.41367 21.2308 7.45003 21.2109 7.47984 21.1831C7.50966 21.1553 7.53196 21.1205 7.54468 21.0818C7.56437 21.0477 7.57474 21.0091 7.57474 20.9698C7.57474 20.9304 7.56437 20.8918 7.54468 20.8577C7.48186 20.778 7.39789 20.7175 7.30232 20.683L6.47651 20.3156C6.38702 20.2678 6.28614 20.2454 6.18478 20.2507C6.14464 20.26 6.10762 20.2795 6.07733 20.3074C6.04704 20.3353 6.02452 20.3705 6.01199 20.4097C5.99215 20.4458 5.98174 20.4862 5.98174 20.5273C5.98174 20.5684 5.99215 20.6089 6.01199 20.6449C6.07577 20.7221 6.15963 20.7802 6.25434 20.8129H6.2521Z" fill="white"/>
<path d="M8.48471 19.6637L7.91247 19.3344L8.21093 18.817L8.25581 18.8416C8.33749 18.899 8.43677 18.926 8.53632 18.9178C8.57895 18.9089 8.61886 18.89 8.65279 18.8628C8.68672 18.8355 8.71371 18.8006 8.73155 18.761C8.75095 18.7303 8.76393 18.696 8.76972 18.6602C8.7755 18.6244 8.77397 18.5878 8.76521 18.5526C8.75621 18.5169 8.73976 18.4835 8.71695 18.4545C8.69414 18.4256 8.66547 18.4018 8.63281 18.3846C8.59927 18.365 8.56203 18.3525 8.52342 18.3478C8.48481 18.3432 8.44565 18.3466 8.40841 18.3577C8.30941 18.3954 8.21814 18.4508 8.13912 18.5213L7.9596 18.6714C7.90798 18.7139 7.85413 18.7542 7.79578 18.7946C7.74279 18.8286 7.68727 18.8586 7.62972 18.8842C7.53639 18.9243 7.43492 18.9419 7.33351 18.9357C7.22681 18.9257 7.12389 18.8912 7.0328 18.8349C6.9078 18.7671 6.8038 18.6664 6.7321 18.5437C6.66862 18.4193 6.64288 18.2792 6.65804 18.1405C6.67834 17.9818 6.73186 17.8291 6.81513 17.6924C6.96607 17.4224 7.20299 17.2103 7.48835 17.0898L8.02467 17.399L7.74192 17.8963L7.70153 17.8739C7.62528 17.8217 7.53339 17.7972 7.44122 17.8044C7.40223 17.8128 7.36564 17.8298 7.33416 17.8542C7.30269 17.8787 7.27715 17.9099 7.25945 17.9456C7.21495 18.0112 7.19803 18.0916 7.21233 18.1696C7.21872 18.2022 7.2323 18.233 7.2521 18.2597C7.27189 18.2865 7.2974 18.3085 7.32677 18.3241C7.34856 18.3379 7.37289 18.3472 7.39833 18.3514C7.42377 18.3557 7.4498 18.3548 7.47488 18.3488C7.53524 18.3337 7.59179 18.3062 7.64094 18.2681C7.70153 18.2233 7.78007 18.1606 7.86535 18.0777C7.97785 17.9763 8.10128 17.8876 8.23337 17.8134C8.33184 17.7609 8.44277 17.7361 8.55427 17.7417C8.69284 17.7603 8.82575 17.8085 8.94389 17.8831C9.06203 17.9577 9.1626 18.057 9.23871 18.1741C9.31139 18.2979 9.34502 18.4408 9.3352 18.584C9.32686 18.7448 9.28073 18.9013 9.20056 19.041C9.11752 19.1824 9.01306 19.3101 8.89088 19.4196C8.77102 19.5243 8.6335 19.607 8.48471 19.6637Z" fill="white"/>
<path d="M8.12566 16.3303L7.77783 16.0861L8.28499 15.3648L8.63282 15.609C8.62317 15.6327 8.61956 15.6584 8.6223 15.6838C8.62504 15.7092 8.63405 15.7335 8.64853 15.7546C8.69676 15.8122 8.75352 15.862 8.81683 15.9025L9.64938 16.4871C9.70905 16.5308 9.77483 16.5655 9.84461 16.5902C9.89486 16.6069 9.9492 16.6069 9.99945 16.5902C10.0526 16.568 10.0979 16.5306 10.1296 16.4826C10.2396 16.3258 10.1902 16.1735 9.9815 16.0346L9.08387 15.4029C9.03849 15.366 8.98441 15.3414 8.92679 15.3312C8.90425 15.3299 8.88167 15.3332 8.86045 15.3409C8.83923 15.3486 8.81981 15.3606 8.80337 15.376L8.45554 15.1319L8.90435 14.48L9.25218 14.7242C9.24097 14.7456 9.23512 14.7694 9.23512 14.7936C9.23512 14.8178 9.24097 14.8416 9.25218 14.863C9.29228 14.9177 9.34257 14.9641 9.40028 14.9997L10.2979 15.6247C10.3679 15.6735 10.4353 15.7258 10.4999 15.7815C10.5513 15.8261 10.5965 15.8773 10.6345 15.9338C10.6724 15.9899 10.7005 16.052 10.7175 16.1175C10.7445 16.2279 10.7445 16.3431 10.7175 16.4535C10.6877 16.5785 10.6335 16.6965 10.5582 16.8007C10.4823 16.9159 10.3875 17.0173 10.2777 17.1009C10.1928 17.1662 10.0922 17.2079 9.98598 17.2219C9.87679 17.2318 9.7668 17.2157 9.66508 17.1748C9.53483 17.1249 9.41182 17.0579 9.2993 16.9755L8.42861 16.3662C8.38097 16.3278 8.32599 16.2996 8.26704 16.2833C8.21592 16.2824 8.16604 16.299 8.12566 16.3303Z" fill="white"/>
<path d="M11.4446 15.4746L11.0968 15.2013C11.1106 15.1833 11.1191 15.1619 11.1215 15.1393C11.1239 15.1168 11.12 15.0941 11.1102 15.0736C11.0729 15.0177 11.0248 14.9698 10.9689 14.9325L9.96801 14.1507C9.92739 14.1148 9.87901 14.0887 9.82664 14.0745C9.80451 14.0716 9.78199 14.0739 9.76093 14.0813C9.73986 14.0887 9.72086 14.1009 9.70546 14.1171L9.37109 13.855L9.79298 13.3151L11.3638 13.7049L10.7512 13.2166C10.7023 13.1738 10.6449 13.1418 10.5829 13.1225C10.5594 13.1186 10.5352 13.1204 10.5126 13.1278C10.4899 13.1352 10.4694 13.148 10.4527 13.165L10.1184 12.9029L10.6323 12.2466L10.9689 12.5087C10.9521 12.5427 10.9458 12.5809 10.9509 12.6184C10.9567 12.6495 10.9725 12.6778 10.9958 12.6991C11.0323 12.7354 11.0713 12.769 11.1125 12.7999L12.6205 13.976L12.2794 14.4105L10.6951 14.0118L11.3122 14.4957C11.3627 14.5396 11.4214 14.5731 11.485 14.5942C11.5077 14.5988 11.5313 14.5971 11.553 14.5892C11.5748 14.5813 11.594 14.5675 11.6084 14.5494L11.9585 14.8227L11.4446 15.4746Z" fill="white"/>
<path d="M13.8347 12.2602L13.3859 11.7875L13.8123 11.3753L13.8504 11.4134C13.9135 11.4908 14.0015 11.5438 14.0995 11.5635C14.1417 11.5651 14.1837 11.5572 14.2226 11.5406C14.2614 11.5239 14.296 11.4988 14.3239 11.4672C14.351 11.4427 14.3729 11.413 14.3883 11.3799C14.4037 11.3468 14.4123 11.311 14.4137 11.2745C14.4143 11.2377 14.4073 11.2012 14.393 11.1672C14.3787 11.1333 14.3575 11.1027 14.3306 11.0774C14.3043 11.0486 14.272 11.0259 14.2359 11.0108C14.1999 10.9957 14.161 10.9886 14.1219 10.99C14.0167 10.9989 13.914 11.0269 13.819 11.0729L13.5946 11.167C13.5319 11.1957 13.4674 11.2204 13.4016 11.2409C13.3415 11.2596 13.28 11.2731 13.2176 11.2813C13.117 11.2942 13.0148 11.2834 12.9191 11.2499C12.8194 11.2104 12.7297 11.1491 12.6566 11.0707C12.5554 10.9697 12.4847 10.8424 12.4524 10.7033C12.4277 10.5685 12.4449 10.4293 12.5017 10.3046C12.5632 10.1555 12.6567 10.0217 12.7755 9.91254C12.885 9.79927 13.0123 9.70467 13.1525 9.63253C13.2939 9.56557 13.4457 9.52315 13.6013 9.50708L14.0322 9.9551L13.6148 10.3561L13.5834 10.3225C13.5259 10.2532 13.4469 10.2051 13.359 10.1858C13.3175 10.1814 13.2755 10.1868 13.2365 10.2016C13.1975 10.2163 13.1626 10.2401 13.1345 10.271C13.0775 10.3212 13.0408 10.3905 13.0313 10.4658C13.0286 10.4988 13.0332 10.532 13.0448 10.563C13.0565 10.594 13.0749 10.622 13.0986 10.6451C13.1335 10.6831 13.1817 10.7064 13.2333 10.71C13.2962 10.7103 13.3586 10.6989 13.4173 10.6764C13.4869 10.6518 13.5811 10.6115 13.6933 10.5599C13.8293 10.4929 13.9723 10.4411 14.1197 10.4054C14.2295 10.3826 14.3434 10.3895 14.4496 10.4255C14.5697 10.4747 14.6766 10.5514 14.7615 10.6495C14.8692 10.7558 14.9467 10.8888 14.9859 11.0348C15.0217 11.1733 15.0147 11.3193 14.9657 11.4537C14.9111 11.6079 14.8194 11.7464 14.6987 11.857C14.5806 11.9711 14.445 12.0656 14.297 12.137C14.1515 12.2053 13.9949 12.247 13.8347 12.2602Z" fill="white"/>
<path d="M14.9456 8.67808C14.9176 8.69848 14.8947 8.72508 14.8788 8.75578C14.8628 8.78648 14.8542 8.82046 14.8536 8.85505C14.8677 8.93308 14.9052 9.00498 14.9613 9.06114L15.1363 9.26275L14.7683 9.58308L14.0659 8.77888L15.6368 7.43481L16.3369 8.23902L15.9711 8.55711L15.7961 8.35774C15.7492 8.29263 15.6822 8.24463 15.6053 8.2211C15.5703 8.21689 15.5348 8.22099 15.5017 8.23305C15.4685 8.24512 15.4387 8.26481 15.4146 8.29054L16.3436 9.35683C16.3755 9.39647 16.4108 9.43321 16.4491 9.4666C16.4702 9.48743 16.498 9.50013 16.5276 9.50244C16.5609 9.50507 16.5942 9.49639 16.6219 9.4778L16.9136 9.81158L16.2404 10.385L15.9509 10.0513C15.9726 10.0252 15.9859 9.99318 15.9891 9.95942C15.9904 9.92943 15.9826 9.89974 15.9666 9.8743C15.9377 9.83279 15.9063 9.79313 15.8724 9.75557L14.9456 8.67808Z" fill="white"/>
<path d="M17.7775 9.1216L17.524 8.76094C17.5386 8.74383 17.5494 8.72377 17.5556 8.70212C17.5618 8.68047 17.5633 8.65775 17.5599 8.63549C17.5472 8.56858 17.5253 8.50375 17.4948 8.44284L16.7026 6.66419L17.4432 6.14673L18.9018 7.5132C18.9419 7.55473 18.989 7.58886 19.0409 7.614C19.0598 7.62183 19.08 7.62586 19.1004 7.62586C19.1208 7.62586 19.141 7.62183 19.1599 7.614L19.4157 7.9769L18.6797 8.48989L18.4261 8.12699C18.4557 8.10513 18.4764 8.0733 18.4844 8.03738C18.4868 8.02206 18.4861 8.00642 18.4822 7.9914C18.4783 7.97638 18.4715 7.9623 18.462 7.95002C18.4479 7.92806 18.4313 7.90777 18.4126 7.88954L18.3318 7.81337L17.9144 8.10459L17.9526 8.19867L17.993 8.26811C18.0021 8.28362 18.0144 8.29703 18.0291 8.30746C18.0438 8.31788 18.0606 8.32508 18.0782 8.3286C18.1148 8.32688 18.1497 8.31264 18.177 8.28828L18.4306 8.65117L17.7775 9.1216ZM17.7529 7.76185L18.0468 7.558L17.322 6.83668L17.7529 7.76185Z" fill="white"/>
<path d="M19.337 5.49041C19.3063 5.50605 19.2793 5.52817 19.258 5.55525C19.2367 5.58232 19.2215 5.61371 19.2136 5.64721C19.2105 5.72694 19.2333 5.80552 19.2786 5.87122L19.411 6.09524L18.9869 6.33941L18.4551 5.41648L20.2503 4.38379L20.7844 5.30672L20.358 5.55537L20.2256 5.33136C20.1916 5.2587 20.1349 5.19898 20.0641 5.16111C20.0306 5.15037 19.9952 5.14762 19.9605 5.15306C19.9258 5.15851 19.8929 5.17201 19.8643 5.19247L20.5735 6.41781C20.5974 6.46149 20.6244 6.50341 20.6543 6.54326C20.6714 6.56738 20.6957 6.58543 20.7238 6.59478C20.7558 6.6057 20.7906 6.6057 20.8226 6.59478L21.047 6.97784L20.2862 7.40346L20.0618 7.0204C20.0891 6.99963 20.1088 6.97052 20.1179 6.93752C20.1269 6.90908 20.1269 6.87859 20.1179 6.85015C20.0982 6.80363 20.075 6.7587 20.0484 6.71575L19.337 5.49041Z" fill="white"/>
<path d="M22.1691 6.34629L21.9694 5.95203C21.9962 5.93127 22.0164 5.90328 22.0278 5.87139C22.0367 5.84295 22.0367 5.81246 22.0278 5.78402C22.0113 5.73691 21.991 5.69121 21.9672 5.64737L21.4129 4.56316C21.3859 4.5021 21.3487 4.44606 21.3029 4.39739C21.284 4.38373 21.2619 4.37512 21.2388 4.37237C21.2156 4.36963 21.1921 4.37284 21.1705 4.38171L20.9775 4.00313L22.6292 3.16309L22.9949 3.87768L22.4855 4.13754L22.4721 4.11289C22.425 4.02105 22.3733 3.96729 22.3128 3.95385C22.2269 3.94418 22.1404 3.96479 22.0681 4.01209L21.8684 4.11289L22.1175 4.60348L22.7593 4.27642L22.959 4.67068L22.3195 4.99774L22.6067 5.56001L22.8311 5.43904C22.9276 5.392 22.9815 5.34048 22.9972 5.28448C23.007 5.20636 22.9896 5.12726 22.9478 5.06046L22.9029 4.97758L23.4123 4.71773L23.814 5.50177L22.1691 6.34629Z" fill="white"/>
<path d="M25.4118 4.56078L25.1874 3.94027L25.7484 3.74762L25.7663 3.7969C25.7907 3.89308 25.8478 3.97781 25.9279 4.03659C25.9661 4.05754 26.0087 4.06944 26.0523 4.07138C26.0958 4.07332 26.1393 4.06525 26.1792 4.0478C26.2142 4.0369 26.2467 4.01923 26.2748 3.99578C26.3029 3.97233 26.3261 3.94357 26.343 3.91115C26.3576 3.87754 26.365 3.84134 26.365 3.80474C26.365 3.76815 26.3576 3.73194 26.343 3.69834C26.3321 3.66094 26.3129 3.62645 26.2869 3.59738C26.2609 3.56832 26.2287 3.54541 26.1927 3.53033C26.0934 3.49436 25.9886 3.47617 25.883 3.47657H25.6586C25.5895 3.47495 25.5205 3.46896 25.4522 3.45865C25.3899 3.45077 25.3284 3.43804 25.2681 3.42056C25.1707 3.38978 25.0822 3.33599 25.0101 3.26376C24.9361 3.18613 24.8808 3.09266 24.8485 2.99046C24.7992 2.85642 24.7891 2.71113 24.8193 2.57156C24.8506 2.43554 24.9236 2.31262 25.028 2.21986C25.1468 2.11131 25.2877 2.02956 25.4409 1.98017C25.5852 1.92937 25.7368 1.90214 25.8897 1.89953C26.0424 1.89755 26.1942 1.9218 26.3386 1.97121L26.5405 2.55588L25.993 2.74405L25.9773 2.69925C25.9554 2.6091 25.9021 2.52967 25.8269 2.47524C25.7929 2.45624 25.7551 2.44517 25.7163 2.44284C25.6774 2.44051 25.6385 2.44699 25.6025 2.46179C25.5298 2.48151 25.4673 2.52792 25.4275 2.59172C25.4106 2.62063 25.4004 2.65293 25.3977 2.68627C25.395 2.7196 25.3998 2.75313 25.4118 2.78437C25.4273 2.83311 25.4611 2.87402 25.506 2.89862C25.5615 2.92805 25.6228 2.94487 25.6855 2.9479C25.7618 2.9479 25.8628 2.9479 25.9885 2.9479C26.1393 2.94411 26.2899 2.9584 26.4373 2.99046C26.5476 3.01373 26.6488 3.06816 26.729 3.14727C26.8167 3.24127 26.8819 3.35384 26.9198 3.47657C26.9733 3.61957 26.9873 3.77434 26.9602 3.92459C26.933 4.06609 26.8642 4.19632 26.7627 4.29869C26.6469 4.41383 26.5054 4.49983 26.3498 4.54958C26.1944 4.60261 26.0315 4.63059 25.8673 4.63247C25.7124 4.63569 25.5582 4.61141 25.4118 4.56078Z" fill="white"/>
<path d="M27.4245 2.32308C27.3884 2.20404 27.3599 2.08283 27.3392 1.96018C27.3199 1.87313 27.3199 1.78291 27.3392 1.69585C27.3707 1.57117 27.4454 1.46165 27.5501 1.38671C27.6865 1.2923 27.8384 1.22254 27.9989 1.18062C28.2823 1.10184 28.5794 1.08579 28.8696 1.13358L29.0738 1.84594L28.5398 2.01619L28.5263 1.96466C28.4612 1.74065 28.34 1.65105 28.1628 1.70033C28.1221 1.70762 28.084 1.72526 28.0521 1.75156C28.0203 1.77785 27.9958 1.8119 27.981 1.85042C27.9576 1.9495 27.9646 2.05333 28.0012 2.14835L28.2503 3.01528C28.2697 3.11556 28.319 3.20767 28.3916 3.27961C28.4239 3.30232 28.4611 3.31685 28.5002 3.32192C28.5393 3.327 28.5791 3.32247 28.6161 3.30873C28.6567 3.30283 28.6949 3.28592 28.7265 3.25986C28.7582 3.23379 28.7821 3.19956 28.7956 3.16088C28.817 3.06148 28.8092 2.95804 28.7731 2.86295L28.7238 2.68374L29.2758 2.52469L29.5227 3.39162C29.4189 3.49114 29.3027 3.57696 29.1771 3.64699C29.0467 3.72058 28.9081 3.77848 28.7642 3.81948C28.6187 3.86396 28.4675 3.8866 28.3154 3.88668C28.1973 3.8832 28.0828 3.84587 27.9855 3.77916C27.9308 3.73922 27.8837 3.68992 27.8463 3.63355C27.8075 3.57403 27.7758 3.51011 27.7521 3.44314C27.7274 3.37594 27.696 3.28185 27.6623 3.16088L27.4245 2.32308Z" fill="white"/>
<path d="M30.8761 2.54036C30.883 2.59052 30.8943 2.63999 30.9098 2.68821C30.9172 2.7166 30.9338 2.74178 30.9569 2.75989C30.9859 2.7777 31.0193 2.78701 31.0534 2.78678L31.1297 3.22136L30.268 3.37369L30.1894 2.9391C30.222 2.9278 30.2502 2.90666 30.2702 2.87862C30.2864 2.85401 30.295 2.82518 30.2949 2.79574C30.2923 2.74536 30.2863 2.69522 30.2769 2.64565L30.0705 1.44943C30.0638 1.38303 30.0447 1.31846 30.0144 1.25902C30.0004 1.23979 29.9817 1.22451 29.9601 1.21469C29.9385 1.20487 29.9146 1.20085 29.8909 1.20301L29.8169 0.784114L30.6786 0.634026L30.7437 1.05293C30.7112 1.06202 30.6832 1.08276 30.6651 1.11117C30.649 1.13655 30.6412 1.16629 30.6427 1.19629C30.6462 1.24596 30.653 1.29535 30.6629 1.34414L30.7235 1.68912L31.2755 1.59055L31.2149 1.24558C31.2067 1.17878 31.1877 1.11374 31.1588 1.05293C31.1445 1.03502 31.1259 1.02094 31.1047 1.01194C31.0836 1.00295 31.0606 0.999333 31.0377 1.0014L30.9681 0.582503L31.8298 0.430176L31.9039 0.849077C31.8712 0.85892 31.8427 0.879428 31.8231 0.90732C31.8075 0.933766 31.7998 0.964039 31.8006 0.994684C31.803 1.0436 31.809 1.09226 31.8186 1.14029L32.0295 2.33875C32.0364 2.38819 32.0477 2.43692 32.0632 2.48436C32.0729 2.51282 32.0909 2.53776 32.1148 2.55604C32.1429 2.57414 32.1757 2.5835 32.2091 2.58292L32.2876 3.03095L31.4259 3.18104L31.3473 2.74645C31.3694 2.74029 31.3897 2.72894 31.4065 2.71335C31.4233 2.69776 31.4361 2.67839 31.4438 2.65685C31.4491 2.58935 31.4446 2.52144 31.4304 2.45524L31.3563 2.04082L30.8043 2.13938L30.8761 2.54036Z" fill="white"/>
<path d="M32.8797 1.14471C32.8797 1.01926 32.8662 0.920695 32.8662 0.851251C32.8668 0.781238 32.8743 0.711453 32.8886 0.642921C32.9041 0.575502 32.9323 0.511639 32.9717 0.454751C33.0384 0.354354 33.1337 0.276302 33.2455 0.23074C33.3898 0.178394 33.541 0.14745 33.6943 0.138895C33.8445 0.125843 33.9958 0.135662 34.1431 0.168016C34.2586 0.195239 34.3638 0.255127 34.446 0.340505C34.5113 0.413771 34.5569 0.502424 34.5784 0.598118C34.6082 0.73447 34.6262 0.873118 34.6323 1.01254L34.6929 1.8705C34.7027 2.00922 34.7027 2.14845 34.6929 2.28716C34.6854 2.38516 34.6521 2.47944 34.5964 2.56046C34.5283 2.65699 34.433 2.73108 34.3226 2.77327C34.0347 2.8752 33.7246 2.89764 33.425 2.83823C33.3089 2.81125 33.2034 2.75043 33.122 2.6635C33.0768 2.61278 33.0411 2.55435 33.0166 2.49102C32.9915 2.42513 32.9735 2.3568 32.9627 2.28716C32.9627 2.21548 32.9448 2.11916 32.9358 1.99371L32.8797 1.14471ZM33.4833 1.08198L33.5462 1.97803C33.5448 2.0804 33.5737 2.18089 33.6292 2.267C33.657 2.29787 33.6921 2.32125 33.7313 2.33495C33.7705 2.34866 33.8126 2.35225 33.8536 2.34541C33.8946 2.34805 33.9355 2.33943 33.9719 2.32047C34.0083 2.30151 34.0388 2.27294 34.06 2.23788C34.1052 2.1463 34.1224 2.04345 34.1094 1.94219L34.0466 1.04614C34.0464 0.944988 34.0185 0.845817 33.9658 0.759407C33.9395 0.726669 33.9045 0.701962 33.8648 0.6881C33.8252 0.674238 33.7824 0.671779 33.7414 0.681003C33.7001 0.680434 33.6593 0.689932 33.6226 0.70867C33.5858 0.727408 33.5542 0.754821 33.5304 0.788528C33.4874 0.879983 33.4711 0.981688 33.4833 1.08198Z" fill="white"/>
<path d="M35.5034 0.952002C35.5034 0.826555 35.5034 0.72799 35.5034 0.658547C35.5055 0.587936 35.5168 0.5179 35.5371 0.450216C35.5558 0.383713 35.587 0.321374 35.6291 0.266527C35.7031 0.172351 35.8041 0.10283 35.9186 0.0671564C36.0642 0.0234314 36.2153 0.000799451 36.3674 -4.70449e-05C36.5187 -0.00609904 36.6701 0.011281 36.8162 0.0514756C36.9308 0.0846548 37.0331 0.150896 37.1102 0.241885C37.1728 0.316901 37.2139 0.407483 37.2291 0.503979C37.2504 0.641842 37.2609 0.78115 37.2605 0.92064L37.2852 1.79204C37.2906 1.93113 37.2853 2.07042 37.2695 2.20871C37.2558 2.30643 37.2171 2.39899 37.1573 2.47752C37.0837 2.56973 36.9846 2.63829 36.8723 2.67465C36.7276 2.72275 36.5759 2.74622 36.4235 2.74409C36.2721 2.75051 36.1206 2.73313 35.9747 2.69257C35.861 2.65875 35.7596 2.59259 35.6829 2.50216C35.6389 2.44925 35.6054 2.38842 35.5842 2.32295C35.5637 2.25583 35.5501 2.18677 35.5438 2.11686C35.5438 2.04742 35.5326 1.94885 35.5303 1.82341L35.5034 0.952002ZM36.1093 0.92064L36.125 1.81669C36.1185 1.91923 36.1427 2.02139 36.1946 2.11014C36.2213 2.14286 36.2559 2.16826 36.2952 2.18393C36.3344 2.19961 36.377 2.20505 36.419 2.19975C36.4618 2.2052 36.5054 2.19891 36.5449 2.18155C36.5844 2.16418 36.6185 2.1364 36.6434 2.10118C36.6885 2.01027 36.7079 1.90882 36.6995 1.80773L36.6838 0.91168C36.6887 0.810271 36.6654 0.709492 36.6165 0.620465C36.5915 0.58571 36.5571 0.558806 36.5174 0.542928C36.4776 0.52705 36.4341 0.522863 36.3921 0.53086C36.3495 0.525643 36.3062 0.531812 36.2668 0.548736C36.2274 0.56566 36.1932 0.592733 36.1677 0.627185C36.1205 0.71744 36.1003 0.819268 36.1093 0.92064Z" fill="white"/>
<path d="M39.8385 2.76453L38.0635 2.64133L38.0949 2.1933C38.1289 2.19091 38.1612 2.17754 38.1869 2.15522C38.2083 2.13547 38.2232 2.10969 38.2295 2.0813C38.239 2.03174 38.245 1.98159 38.2475 1.93121L38.3328 0.719308C38.3446 0.653378 38.3446 0.585868 38.3328 0.519938C38.324 0.49812 38.3096 0.478984 38.2911 0.46444C38.2726 0.449896 38.2506 0.440453 38.2273 0.437054L38.2565 0.0136719L39.1294 0.074155L39.1002 0.497537C39.0662 0.499601 39.0338 0.513009 39.0082 0.535619C38.987 0.556958 38.9729 0.584349 38.9678 0.614023C38.9586 0.662106 38.9526 0.71075 38.9499 0.75963L38.8489 2.18882L39.0486 2.20226C39.1179 2.21205 39.1885 2.20275 39.2528 2.17538C39.2756 2.16333 39.2957 2.1468 39.3119 2.12678C39.3281 2.10675 39.3401 2.08366 39.3471 2.0589C39.3684 1.9822 39.3804 1.90323 39.383 1.82368L39.4032 1.53247L39.9216 1.56831L39.8385 2.76453Z" fill="white"/>
<path d="M41.964 1.24538C41.9865 1.12142 42.0067 1.0251 42.0246 0.956402C42.0415 0.88833 42.0655 0.822245 42.0964 0.759272C42.1271 0.697674 42.1698 0.642833 42.2221 0.597984C42.3111 0.517548 42.422 0.46531 42.5408 0.447896C42.6944 0.431841 42.8495 0.439396 43.0008 0.470297C43.1515 0.492809 43.2976 0.538926 43.4339 0.606944C43.54 0.660781 43.6275 0.74503 43.6852 0.848877C43.7323 0.93453 43.7556 1.03122 43.7526 1.12889C43.7474 1.26803 43.7317 1.40657 43.7054 1.54331L43.5551 2.39008C43.533 2.52816 43.5007 2.66443 43.4586 2.79778C43.4263 2.88967 43.3715 2.97206 43.2993 3.03747C43.209 3.1147 43.0984 3.16445 42.9806 3.18084C42.8308 3.19711 42.6795 3.19031 42.5318 3.16067C42.3755 3.13941 42.2239 3.09248 42.083 3.02179C41.9769 2.96795 41.8894 2.8837 41.8316 2.77986C41.8004 2.71963 41.7799 2.65444 41.771 2.58721C41.7632 2.51724 41.7632 2.4466 41.771 2.37663C41.771 2.30495 41.7935 2.20863 41.8159 2.08542L41.964 1.24538ZM42.5654 1.32826L42.4084 2.22431C42.3832 2.32337 42.3871 2.42757 42.4196 2.52448C42.4388 2.56089 42.467 2.59176 42.5016 2.61413C42.5362 2.63649 42.5759 2.64959 42.6171 2.65217C42.656 2.66296 42.697 2.66368 42.7362 2.65427C42.7755 2.64487 42.8117 2.62564 42.8415 2.59841C42.9035 2.51776 42.9423 2.4217 42.9537 2.32063L43.1108 1.42459C43.1366 1.32423 43.1335 1.2186 43.1018 1.11993C43.0843 1.08315 43.0571 1.05182 43.0231 1.02932C42.989 1.00683 42.9495 0.994006 42.9088 0.992244C42.8698 0.982079 42.829 0.981668 42.7898 0.991046C42.7507 1.00042 42.7145 1.0193 42.6844 1.04601C42.6172 1.12603 42.5758 1.22439 42.5654 1.32826Z" fill="white"/>
<path d="M44.145 3.43399L44.2438 3.00388C44.2775 3.00684 44.3113 2.999 44.3402 2.98148C44.3647 2.96458 44.3841 2.94135 44.3964 2.91428C44.4127 2.8666 44.4262 2.81797 44.4367 2.76867L44.7105 1.58365C44.7299 1.51985 44.7375 1.45305 44.733 1.38652C44.733 1.3462 44.6971 1.3126 44.641 1.28796L44.7374 0.873535L46.499 1.279L46.3172 2.06528L45.7966 1.94655V1.92191C45.81 1.88549 45.8153 1.84661 45.8122 1.80794C45.8091 1.76927 45.7977 1.73173 45.7787 1.6979C45.7247 1.63738 45.6505 1.59839 45.57 1.58813L45.3456 1.53661L45.2266 2.05856L45.8999 2.21088L45.8011 2.64323L45.1279 2.48866L45.0314 2.91204C45.0118 2.97811 45.0042 3.04715 45.009 3.11589C45.0134 3.13859 45.0246 3.15944 45.041 3.1758C45.0574 3.19216 45.0782 3.20327 45.101 3.20773L45.0022 3.63784L44.145 3.43399Z" fill="white"/>
<path d="M47.6411 4.13309L47.888 3.52378L48.4378 3.74779L48.4198 3.79707C48.3749 3.8856 48.3622 3.98696 48.3839 4.08381C48.4157 4.15719 48.4739 4.21604 48.547 4.24879C48.6201 4.28153 48.7028 4.28581 48.7788 4.26077C48.8127 4.24611 48.8431 4.22461 48.8682 4.19762C48.8933 4.17063 48.9126 4.13874 48.9247 4.10397C48.9408 4.06882 48.9492 4.03062 48.9492 3.99196C48.9492 3.9533 48.9408 3.9151 48.9247 3.87995C48.8747 3.78637 48.8068 3.70343 48.725 3.63578L48.5522 3.48121C48.501 3.43528 48.453 3.38588 48.4086 3.33337C48.3659 3.28753 48.3282 3.23721 48.2964 3.18328C48.2431 3.09631 48.2108 2.99813 48.2021 2.89655C48.1979 2.7897 48.2179 2.68327 48.2605 2.58517C48.3117 2.45162 48.3996 2.33517 48.514 2.24915C48.6274 2.16782 48.7627 2.12254 48.9023 2.11923C49.0634 2.11529 49.2235 2.14664 49.3713 2.21107C49.5158 2.26699 49.65 2.34647 49.7685 2.44628C49.8864 2.54595 49.9866 2.66487 50.0647 2.79798L49.8178 3.36025L49.2815 3.13624L49.2995 3.09144C49.3391 3.00847 49.3502 2.91475 49.3309 2.82486C49.3176 2.78725 49.2956 2.75327 49.2668 2.72565C49.2379 2.69803 49.203 2.67753 49.1648 2.66581C49.0947 2.63225 49.0145 2.62665 48.9404 2.65013C48.9091 2.66103 48.8805 2.67874 48.8568 2.70198C48.8332 2.72523 48.815 2.75342 48.8035 2.78454C48.7845 2.832 48.7845 2.88493 48.8035 2.93239C48.8278 2.99053 48.8637 3.04312 48.909 3.08695C48.9606 3.14072 49.0347 3.21016 49.1334 3.29081C49.2499 3.38726 49.3545 3.49703 49.4453 3.61786C49.5122 3.7081 49.5526 3.81514 49.562 3.927C49.5669 4.05552 49.5423 4.18346 49.4902 4.3011C49.4361 4.44231 49.3455 4.56673 49.2277 4.66175C49.1152 4.75095 48.9783 4.80406 48.8349 4.81408C48.6722 4.82553 48.5091 4.79788 48.3592 4.73344C48.2063 4.67266 48.0646 4.58713 47.9396 4.48031C47.8209 4.38244 47.72 4.265 47.6411 4.13309Z" fill="white"/>
<path d="M50.6194 3.71408C50.6685 3.59946 50.7247 3.48799 50.7877 3.38031C50.8336 3.30381 50.8947 3.23748 50.9672 3.18542C51.0724 3.11126 51.2 3.07565 51.3285 3.08461C51.4951 3.10169 51.6575 3.14715 51.8087 3.21902C52.0785 3.33918 52.3184 3.51742 52.5111 3.74096L52.2082 4.413L51.6831 4.18899L51.7055 4.14194C51.7998 3.91793 51.7661 3.78129 51.5978 3.70512C51.5632 3.68706 51.5247 3.67763 51.4856 3.67763C51.4465 3.67763 51.408 3.68706 51.3734 3.70512C51.2911 3.76595 51.2293 3.85033 51.1961 3.94705L50.8281 4.76918C50.7801 4.85999 50.7591 4.96256 50.7675 5.06487C50.7776 5.10458 50.7974 5.14114 50.8253 5.17126C50.8531 5.20138 50.888 5.22409 50.9268 5.23736C50.9613 5.25579 50.9999 5.26544 51.039 5.26544C51.0782 5.26544 51.1167 5.25579 51.1512 5.23736C51.231 5.17363 51.2916 5.08913 51.3263 4.99319L51.4026 4.82294L51.9277 5.04695L51.5596 5.87131C51.4154 5.87919 51.2707 5.86941 51.1288 5.84219C50.9819 5.81519 50.8388 5.77082 50.7024 5.71002C50.5594 5.65093 50.4268 5.56924 50.3097 5.46809C50.2204 5.39079 50.1563 5.28859 50.1257 5.17464C50.1088 5.10884 50.1042 5.04048 50.1122 4.97303C50.1212 4.90275 50.1378 4.83366 50.1616 4.76694C50.1863 4.69973 50.2244 4.60789 50.2738 4.49364L50.6194 3.71408Z" fill="white"/>
<path d="M53.1282 6.11093C53.1025 6.15439 53.0793 6.19926 53.0586 6.24533C53.051 6.2732 53.051 6.30259 53.0586 6.33046C53.066 6.36366 53.0851 6.39309 53.1125 6.41334L52.8881 6.7964L52.1318 6.35958L52.3562 5.97652C52.3883 5.98728 52.4229 5.98728 52.455 5.97652C52.4836 5.96705 52.5087 5.94907 52.5268 5.925C52.5579 5.88552 52.5856 5.84357 52.6098 5.79955L53.218 4.7467C53.2546 4.6913 53.2812 4.62987 53.2965 4.56525C53.2981 4.54201 53.2937 4.51875 53.2839 4.49761C53.2741 4.47647 53.2592 4.45813 53.2404 4.44428L53.4513 4.0769L54.2098 4.51373L53.9854 4.8811C53.9542 4.87035 53.9202 4.87035 53.8889 4.8811C53.86 4.89118 53.8349 4.90996 53.8171 4.93487C53.7877 4.97422 53.7607 5.01537 53.7363 5.05807L53.1282 6.11093Z" fill="white"/>
<path d="M53.3369 7.02947L53.5793 6.65761C53.6099 6.67251 53.6445 6.67722 53.678 6.67105C53.7068 6.66307 53.7326 6.64669 53.7521 6.62401C53.7847 6.58628 53.814 6.54581 53.8396 6.50304L54.5128 5.48379C54.5523 5.42934 54.5826 5.36881 54.6026 5.30458C54.6042 5.28123 54.6001 5.25785 54.5907 5.2364C54.5814 5.21495 54.5669 5.19608 54.5487 5.18137L54.7731 4.8252L56.326 5.82429L55.8884 6.49632L55.4104 6.18494L55.4239 6.16254C55.4498 6.13193 55.4687 6.09599 55.4792 6.05728C55.4897 6.01856 55.4915 5.97802 55.4845 5.93853C55.4479 5.85983 55.3864 5.7953 55.3095 5.75484L55.1209 5.63388L54.8202 6.0931L55.4284 6.49632L55.1883 6.86594L54.5846 6.47616L54.239 7.00483L54.4634 7.15043C54.494 7.17673 54.5298 7.19614 54.5685 7.20735C54.6073 7.21856 54.648 7.22131 54.6878 7.2154C54.7611 7.18626 54.821 7.13124 54.8561 7.06083L54.9078 6.98243L55.3857 7.29156L54.9055 8.0308L53.3369 7.02947Z" fill="white"/>
<path d="M55.4282 8.3265L55.702 7.97928C55.72 7.99304 55.7415 8.00158 55.7641 8.00395C55.7866 8.00632 55.8094 8.00244 55.8299 7.99272C55.8859 7.95542 55.9339 7.90746 55.9713 7.8516L56.7545 6.85027C56.7903 6.81046 56.8164 6.76292 56.8308 6.71138C56.8337 6.68929 56.8314 6.66681 56.824 6.64578C56.8166 6.62476 56.8043 6.60578 56.7881 6.59041L57.0507 6.25439L57.5915 6.67778L57.201 8.24586L57.688 7.62535C57.7308 7.57651 57.7629 7.51928 57.7822 7.45734C57.7863 7.43385 57.7846 7.40972 57.7771 7.38707C57.7697 7.36441 57.7568 7.34393 57.7396 7.32741L58.0022 6.99363L58.6597 7.50662L58.3949 7.8404C58.3603 7.82524 58.3223 7.81982 58.2849 7.82472C58.2538 7.83051 58.2255 7.84624 58.2041 7.86952C58.1672 7.90543 58.1334 7.9444 58.1031 7.986L56.925 9.49136L56.4897 9.15086L56.8891 7.56934L56.4044 8.18538C56.3604 8.2358 56.3268 8.29442 56.3056 8.35786C56.301 8.38053 56.3028 8.40404 56.3107 8.42579C56.3186 8.44753 56.3324 8.46666 56.3505 8.48107L56.0768 8.82829L55.4282 8.3265Z" fill="white"/>
<path d="M58.7495 8.73647C58.8308 8.64172 58.9177 8.55196 59.0098 8.46766C59.0747 8.4081 59.151 8.36237 59.2342 8.33325C59.3553 8.28963 59.4879 8.28963 59.609 8.33325C59.7637 8.39737 59.9058 8.48839 60.0286 8.60207C60.2498 8.79583 60.4253 9.03603 60.5425 9.30546L60.06 9.85653L59.6269 9.48019L59.6606 9.43987C59.8154 9.2629 59.8244 9.11281 59.6853 8.99185C59.657 8.96178 59.6217 8.93925 59.5825 8.92634C59.5433 8.91342 59.5015 8.91053 59.4609 8.91792C59.3654 8.95481 59.2822 9.01767 59.2207 9.09937L58.6283 9.77141C58.5561 9.84432 58.5056 9.93584 58.4824 10.0357C58.4791 10.0788 58.4868 10.1219 58.5049 10.1611C58.523 10.2003 58.5508 10.2343 58.5857 10.2598C58.6139 10.2897 58.6493 10.3119 58.6887 10.3241C58.728 10.3362 58.7699 10.338 58.8101 10.3292C58.9055 10.2923 58.9887 10.2294 59.0502 10.1477L59.1714 10.0066L59.6067 10.383L59.0143 11.055C58.8736 11.0218 58.7378 10.9706 58.6104 10.9027C58.4771 10.8345 58.3527 10.7503 58.2401 10.6518C58.1203 10.554 58.0172 10.4375 57.9349 10.3068C57.872 10.2062 57.8408 10.0892 57.8451 9.97078C57.8474 9.90329 57.8635 9.83698 57.8923 9.77589C57.9211 9.71149 57.9572 9.65061 58 9.59444C58.0426 9.53619 58.1054 9.45779 58.1862 9.37043L58.7495 8.73647Z" fill="white"/>
<path d="M59.436 11.6484L59.7547 11.3416C59.7821 11.3618 59.8149 11.3735 59.8489 11.3752C59.8789 11.3741 59.9079 11.3639 59.932 11.346C59.9718 11.3161 60.0093 11.2831 60.0442 11.2475L60.9216 10.4029C60.9718 10.3596 61.0143 10.3081 61.0473 10.2506C61.0552 10.2285 61.0573 10.2047 61.0534 10.1816C61.0495 10.1584 61.0396 10.1367 61.0248 10.1184L61.33 9.82275L62.6091 11.1623L62.0302 11.7201L61.6352 11.3102L61.6532 11.2923C61.6842 11.2686 61.7099 11.2385 61.7285 11.2041C61.7471 11.1698 61.7581 11.1319 61.7609 11.0929C61.7444 11.0061 61.6994 10.9272 61.633 10.8689L61.4759 10.7076L61.0809 11.0884L61.5791 11.6059L61.2627 11.9195L60.7645 11.402L60.3157 11.8501L60.4997 12.0405C60.5477 12.1018 60.6177 12.142 60.695 12.1525C60.7724 12.1389 60.8428 12.0994 60.8947 12.0405L60.962 11.9733L61.3592 12.3832L60.7241 12.9925L59.436 11.6484Z" fill="white"/>
<path d="M61.0205 13.844L61.0631 13.6871C61.1496 13.717 61.2437 13.717 61.3302 13.6871C61.2937 13.6299 61.2779 13.5619 61.2853 13.4945C61.2956 13.4321 61.3283 13.3755 61.3773 13.3354C61.4036 13.3119 61.4346 13.2941 61.4682 13.2833C61.5019 13.2725 61.5374 13.2689 61.5725 13.2727C61.6319 13.2798 61.6876 13.3051 61.7319 13.3453C61.7761 13.3855 61.8067 13.4384 61.8194 13.4967C61.8287 13.5465 61.8232 13.5979 61.8037 13.6446C61.7827 13.6951 61.7495 13.7398 61.7072 13.7745C61.6236 13.8463 61.5188 13.8888 61.4087 13.8955C61.2771 13.907 61.1445 13.8894 61.0205 13.844Z" fill="white"/>
<path d="M63.6706 15.497C63.6289 15.525 63.5892 15.5556 63.5516 15.5888C63.5293 15.6082 63.5136 15.6341 63.5067 15.6628C63.5005 15.6957 63.5061 15.7298 63.5225 15.7591L63.1589 16.0122L62.6562 15.2976L63.0198 15.0445C63.0435 15.0686 63.0741 15.085 63.1073 15.0915C63.1366 15.0939 63.1661 15.0885 63.1926 15.0759C63.2375 15.0527 63.2803 15.0257 63.3205 14.9952L64.3168 14.2985C64.3742 14.2634 64.425 14.2187 64.4672 14.1664C64.4788 14.1463 64.4849 14.1235 64.4849 14.1003C64.4849 14.0771 64.4788 14.0543 64.4672 14.0342L64.8173 13.79L65.3177 14.5046L64.9699 14.7488C64.9474 14.7231 64.9163 14.7064 64.8824 14.7018C64.8528 14.6992 64.8231 14.7054 64.7971 14.7197C64.7532 14.7433 64.7112 14.7703 64.6714 14.8003L63.6706 15.497Z" fill="white"/>
<path d="M64.4472 17.9007L63.48 16.411L63.8502 16.1713C63.8731 16.1959 63.9028 16.213 63.9355 16.2206C63.9639 16.2305 63.9947 16.2305 64.023 16.2206C64.0686 16.2 64.1122 16.1753 64.1532 16.1467L65.1742 15.4746C65.232 15.441 65.2843 15.3987 65.3291 15.3492C65.3399 15.328 65.3456 15.3046 65.3456 15.2809C65.3456 15.2571 65.3399 15.2337 65.3291 15.2125L65.6859 14.9885L66.1616 15.721L65.8048 15.9451C65.7826 15.9192 65.7528 15.9012 65.7195 15.8935C65.6895 15.8914 65.6595 15.8968 65.632 15.9092C65.5879 15.9312 65.5452 15.9559 65.5041 15.9831L64.3013 16.7627L64.409 16.9285C64.4435 16.9891 64.4929 17.04 64.5526 17.0763C64.5767 17.0869 64.6027 17.0924 64.6289 17.0924C64.6552 17.0924 64.6812 17.0869 64.7052 17.0763C64.7796 17.0472 64.8504 17.0096 64.9162 16.9643L65.1585 16.8053L65.4458 17.2533L64.4472 17.9007Z" fill="white"/>
<path d="M64.7544 18.4384L65.1381 18.2144C65.1589 18.2416 65.1881 18.2613 65.2212 18.2704C65.2496 18.2793 65.2802 18.2793 65.3087 18.2704C65.3549 18.2508 65.3999 18.2284 65.4433 18.2032L66.498 17.5939C66.5548 17.5625 66.6056 17.5216 66.6484 17.4729C66.66 17.4524 66.6661 17.4293 66.6661 17.4057C66.6661 17.3822 66.66 17.359 66.6484 17.3385L67.0164 17.1145L67.9454 18.7184L67.2476 19.1194L66.9625 18.6266L66.9872 18.6131C67.023 18.5977 67.0549 18.5746 67.0809 18.5456C67.1069 18.5166 67.1262 18.4823 67.1376 18.4451C67.141 18.3588 67.1158 18.2737 67.0658 18.2032L66.9536 18.0105L66.4778 18.2838L66.8369 18.9066L66.4532 19.1306L66.0941 18.5078L65.5443 18.8237L65.6789 19.0477C65.7313 19.1388 65.7852 19.1903 65.8405 19.2023C65.9203 19.2117 66.0007 19.1901 66.0649 19.1418L66.148 19.0948L66.433 19.5876L65.6677 20.0356L64.7544 18.4384Z" fill="white"/>
<path d="M67.3865 22.0806C67.3237 22.1105 67.2788 22.1329 67.2519 22.1478C67.2268 22.1637 67.2066 22.1862 67.1935 22.2128C67.1829 22.2448 67.1829 22.2794 67.1935 22.3114L66.7896 22.4906L66.4238 21.6931L66.83 21.5116C66.8449 21.5398 66.8693 21.5618 66.8988 21.5737C66.9284 21.5856 66.9613 21.5866 66.9916 21.5766C67.0404 21.5635 67.0878 21.5454 67.133 21.5228L68.255 21.0278C68.3173 21.0043 68.375 20.9702 68.4255 20.927C68.4403 20.9092 68.4503 20.8879 68.4547 20.8652C68.459 20.8425 68.4575 20.819 68.4502 20.797L68.8384 20.6223L69.1952 21.422L68.807 21.5945C68.7888 21.5662 68.7621 21.5442 68.7307 21.5318C68.7022 21.5229 68.6717 21.5229 68.6432 21.5318C68.5954 21.5467 68.5489 21.5654 68.5041 21.5878L67.3865 22.0806Z" fill="white"/>
<path d="M66.9985 22.9543L67.4182 22.811C67.4334 22.8409 67.4578 22.8652 67.4877 22.8804C67.5162 22.8895 67.5468 22.8895 67.5753 22.8804C67.6249 22.8698 67.6736 22.8556 67.7211 22.8378L68.8723 22.4436C68.9367 22.4247 68.9973 22.3952 69.0518 22.3562C69.0686 22.3395 69.0805 22.3187 69.0864 22.2958C69.0923 22.273 69.092 22.249 69.0855 22.2263L69.4894 22.0874L70.0774 23.7944L69.3144 24.0565L69.1394 23.5524H69.1618C69.1991 23.5443 69.2342 23.5283 69.2648 23.5055C69.2954 23.4827 69.3207 23.4537 69.3391 23.4203C69.3585 23.3457 69.3522 23.2668 69.3211 23.1963L69.2448 22.9722L68.7377 23.147L68.9621 23.7944L68.5424 23.9377L68.318 23.2903L67.9164 23.4292C67.8503 23.4484 67.7881 23.4787 67.7323 23.5188C67.7155 23.5345 67.7036 23.5547 67.698 23.5769C67.6924 23.5992 67.6935 23.6226 67.7009 23.6443L67.2835 23.7899L66.9985 22.9543Z" fill="white"/>
<path d="M67.7412 25.1474L68.1676 25.0242C68.1813 25.0555 68.205 25.0815 68.2349 25.0981C68.2612 25.1115 68.2908 25.1169 68.3202 25.1138C68.3696 25.1055 68.4184 25.0935 68.466 25.078L69.6374 24.7442C69.7026 24.7292 69.7648 24.7035 69.8215 24.668C69.839 24.6518 69.8521 24.6313 69.8596 24.6086C69.867 24.5859 69.8686 24.5616 69.8641 24.5381L70.2725 24.4216L70.7841 26.2137L70.0144 26.4333L69.8574 25.8867H69.8843C69.9227 25.88 69.9592 25.8651 69.9913 25.8431C70.0235 25.821 70.0505 25.7924 70.0705 25.759C70.0957 25.6765 70.0917 25.588 70.0593 25.5081L69.9987 25.2841L69.4691 25.4342L69.6666 26.1264L69.2425 26.2473L69.0428 25.5574L68.4346 25.7299L68.5087 25.9875C68.5151 26.0251 68.5289 26.0611 68.5493 26.0934C68.5697 26.1257 68.5963 26.1537 68.6276 26.1756C68.6999 26.2028 68.7797 26.2028 68.852 26.1756L68.944 26.1488L69.1011 26.6976L68.2529 26.9395L67.7412 25.1474Z" fill="white"/>
<path d="M11.4449 53.9194L12.4816 55.2321L11.8555 55.7227L11.4696 55.2321L11.584 55.1403C11.6379 55.0977 11.6603 55.0597 11.6513 55.0216C11.641 54.9822 11.6252 54.9445 11.6042 54.9096C11.6013 54.9024 11.5975 54.8956 11.593 54.8894V54.8692L11.2205 55.1291L11.492 55.4741L11.1442 55.7451L10.8726 55.4024L10.6482 55.5816C10.618 55.6041 10.5902 55.6296 10.5652 55.6578C10.5406 55.6862 10.525 55.7213 10.5203 55.7586L10.1927 56.0162L9.66309 55.3441L9.99072 55.0865C10.0242 55.0976 10.0604 55.0976 10.0939 55.0865C10.1293 55.0761 10.1621 55.0586 10.1904 55.035L11.0477 54.363C11.0811 54.3411 11.1063 54.3088 11.1195 54.2711C11.1283 54.2404 11.1283 54.2078 11.1195 54.177L11.4449 53.9194ZM11.2721 56.2469L11.9834 55.6309C12.0519 55.5622 12.1353 55.5103 12.2272 55.4792C12.319 55.4481 12.4169 55.4387 12.513 55.4517C12.7409 55.514 12.941 55.6514 13.0808 55.8415C13.2467 55.999 13.3536 56.2085 13.3837 56.4351C13.3783 56.5283 13.3523 56.6192 13.3077 56.7012C13.2631 56.7833 13.201 56.8546 13.1257 56.91L12.3515 57.582C12.2864 57.6467 12.2084 57.6969 12.1225 57.7293C12.0367 57.7618 11.9449 57.7757 11.8533 57.7702C11.6282 57.7136 11.4313 57.5775 11.299 57.3871C11.1255 57.2205 11.0179 56.997 10.9961 56.7577C11.0029 56.6575 11.0312 56.5601 11.0793 56.4719C11.1273 56.3838 11.1938 56.307 11.2743 56.2469H11.2721ZM11.9161 57.0175L12.6409 56.388C12.6788 56.3586 12.7114 56.323 12.7374 56.2828C12.7554 56.2536 12.7374 56.2178 12.7015 56.1708C12.6894 56.1537 12.6732 56.1398 12.6544 56.1304C12.6356 56.121 12.6148 56.1164 12.5938 56.117C12.5447 56.126 12.4994 56.1494 12.4637 56.1842L11.7388 56.8137C11.7022 56.844 11.6731 56.8823 11.6536 56.9257C11.6439 56.9476 11.6415 56.972 11.6467 56.9954C11.652 57.0188 11.6646 57.0399 11.6827 57.0556C11.6941 57.0733 11.7112 57.0867 11.7311 57.0936C11.7511 57.1005 11.7727 57.1005 11.7927 57.0937C11.8408 57.0753 11.885 57.048 11.9229 57.013L11.9161 57.0175ZM13.6553 56.5381L14.3621 57.2953C14.3891 57.3244 14.4227 57.3625 14.4609 57.4095C14.5004 57.4591 14.535 57.5123 14.5641 57.5686C14.6161 57.6681 14.6423 57.779 14.6404 57.8912C14.6337 57.9627 14.6126 58.0322 14.5783 58.0953C14.544 58.1584 14.4971 58.214 14.4407 58.2585C14.352 58.3636 14.2286 58.4335 14.0929 58.4557C13.9968 58.4577 13.9019 58.4353 13.8168 58.3907C13.8478 58.4266 13.8702 58.469 13.8822 58.5149C13.8943 58.5607 13.8957 58.6086 13.8864 58.655C13.86 58.7286 13.8161 58.7947 13.7585 58.8477L13.6373 58.9619C13.6096 58.9875 13.5847 59.0161 13.5633 59.0471C13.5553 59.0639 13.5511 59.0822 13.5511 59.1008C13.5511 59.1194 13.5553 59.1378 13.5633 59.1546L13.2738 59.4279L12.7419 58.8679C12.7585 58.8369 12.778 58.8076 12.8003 58.7805C12.8272 58.7491 12.8541 58.7155 12.8833 58.6842L12.982 58.5856C13.0135 58.552 13.0404 58.5274 13.0628 58.5072L13.2132 58.3638C13.235 58.3475 13.2526 58.3261 13.2643 58.3016C13.276 58.277 13.2816 58.2499 13.2805 58.2227C13.2716 58.1772 13.2557 58.1334 13.2334 58.0928L13.2199 58.0726C13.217 58.0654 13.2133 58.0587 13.2087 58.0525L13.0112 58.2406L12.982 58.2675L12.9551 58.2989C12.9318 58.3214 12.9128 58.348 12.899 58.3773C12.8929 58.3898 12.8897 58.4036 12.8897 58.4176C12.8897 58.4316 12.8929 58.4454 12.899 58.4579L12.6095 58.7312L12.0036 58.095L12.2931 57.8217C12.3156 57.8269 12.3388 57.8275 12.3616 57.8237C12.3843 57.8199 12.406 57.8116 12.4255 57.7993C12.4691 57.768 12.5103 57.7335 12.5489 57.6963L13.2222 57.0511L13.2379 57.0354L13.2558 57.0198C13.2837 56.9945 13.3092 56.9667 13.3321 56.9369C13.3412 56.9204 13.3459 56.9019 13.3459 56.8831C13.3459 56.8643 13.3412 56.8458 13.3321 56.8293L13.6485 56.5292L13.6553 56.5381ZM13.8572 57.4454L13.5229 57.7612L13.5498 57.7881C13.5591 57.799 13.5697 57.8087 13.5812 57.8172C13.6144 57.8473 13.6558 57.8669 13.7001 57.8732C13.7473 57.8732 13.8011 57.8486 13.8617 57.7814C13.9223 57.7142 13.9605 57.6403 13.9515 57.5955C13.9296 57.5311 13.8918 57.4733 13.8415 57.4275L13.8572 57.4454ZM15.5874 58.4512L16.2875 59.0515L15.8881 59.8625L16.6354 59.3495L17.3086 59.923L17.0505 60.2231H17.0213C16.9815 60.2239 16.9433 60.2391 16.9136 60.2657C16.8623 60.3154 16.8136 60.3677 16.7678 60.4225L16.1933 61.0945C16.1571 61.136 16.1241 61.1802 16.0946 61.2267C16.0857 61.2444 16.081 61.264 16.081 61.2838C16.081 61.3037 16.0857 61.3232 16.0946 61.3409L15.8208 61.6568L15.1722 61.099L15.4438 60.7832C15.4598 60.7924 15.478 60.7973 15.4965 60.7973C15.515 60.7973 15.5332 60.7924 15.5492 60.7832C15.586 60.7503 15.6198 60.7144 15.6502 60.6756L15.6727 60.6487L15.6974 60.6196L16.025 60.2388L14.9793 60.931L14.8199 60.7944L15.3607 59.6877L15.0196 60.0842C14.9852 60.1237 14.9537 60.1656 14.9254 60.2097C14.9154 60.2283 14.9101 60.2491 14.9101 60.2702C14.9101 60.2913 14.9154 60.3121 14.9254 60.3307L14.6539 60.6465L14.0973 60.1694L14.3621 59.8602C14.3763 59.87 14.3932 59.8752 14.4104 59.8752C14.4276 59.8752 14.4444 59.87 14.4586 59.8602C14.4873 59.8375 14.513 59.8111 14.5349 59.7818L14.5484 59.7661L14.5641 59.7505L15.2373 58.9731L15.2508 58.9575L15.2642 58.9418C15.2898 58.9138 15.3131 58.8839 15.3338 58.8522C15.3433 58.8354 15.3482 58.8165 15.3482 58.7973C15.3482 58.7781 15.3433 58.7592 15.3338 58.7424L15.5919 58.4422L15.5874 58.4512ZM16.3818 61.2155L16.9293 60.4494C16.9798 60.3666 17.0489 60.2966 17.131 60.2449C17.2132 60.1932 17.3062 60.1612 17.4028 60.1514C17.639 60.1597 17.8657 60.2464 18.0469 60.3979C18.2449 60.5118 18.3971 60.6907 18.4777 60.9041C18.4951 60.996 18.4916 61.0905 18.4676 61.1809C18.4435 61.2712 18.3994 61.355 18.3386 61.4261L17.7282 62.2616C17.6792 62.3405 17.6137 62.4079 17.5363 62.4593C17.4589 62.5108 17.3712 62.5449 17.2794 62.5596C17.0482 62.5329 16.8278 62.4469 16.6398 62.3099C16.4518 62.1729 16.3026 61.9895 16.2068 61.7778C16.1893 61.6789 16.1935 61.5775 16.219 61.4804C16.2446 61.3834 16.2909 61.293 16.3549 61.2155H16.3818ZM17.1896 61.8136L17.7282 61.0318C17.7573 60.9944 17.7808 60.9529 17.7978 60.9086C17.7978 60.875 17.7978 60.8414 17.7372 60.8056C17.721 60.7919 17.7016 60.7825 17.6808 60.7782C17.6601 60.7739 17.6386 60.7749 17.6183 60.7809C17.5722 60.7993 17.5335 60.8324 17.5083 60.875L16.9495 61.6568C16.922 61.6952 16.9022 61.7386 16.8912 61.7845C16.8878 61.8084 16.8917 61.8328 16.9025 61.8544C16.9134 61.876 16.9305 61.8938 16.9518 61.9055C16.9675 61.9195 16.9873 61.9282 17.0083 61.9302C17.0293 61.9322 17.0504 61.9275 17.0685 61.9167C17.1098 61.8858 17.1461 61.8488 17.1762 61.8069L17.1896 61.8136ZM18.7403 60.9736L19.62 61.5381L19.7434 61.6254C19.7936 61.6645 19.8402 61.708 19.8825 61.7554C19.9561 61.8402 20.0077 61.9417 20.0329 62.0511C20.0432 62.1224 20.039 62.1951 20.0204 62.2648C20.0019 62.3344 19.9695 62.3997 19.9252 62.4565C19.8635 62.5793 19.7601 62.6762 19.6334 62.7298C19.54 62.7545 19.4418 62.7545 19.3484 62.7298C19.3875 62.7569 19.4197 62.7927 19.4427 62.8342C19.4656 62.8758 19.4787 62.9221 19.4808 62.9695C19.4726 63.0493 19.4457 63.126 19.4023 63.1935L19.3103 63.3324C19.2902 63.3641 19.2737 63.3979 19.2609 63.4332C19.2544 63.4509 19.2523 63.4699 19.2546 63.4886C19.257 63.5073 19.2637 63.5252 19.2744 63.5407L19.05 63.8745L18.4014 63.4623C18.4105 63.4285 18.4225 63.3955 18.4373 63.3638C18.4553 63.3257 18.4755 63.2898 18.4957 63.2518L18.5675 63.1308L18.6281 63.0367L18.7403 62.862C18.7576 62.8411 18.7695 62.8163 18.775 62.7897C18.7805 62.7632 18.7794 62.7357 18.7717 62.7097C18.7532 62.6674 18.7274 62.6287 18.6954 62.5954L18.6797 62.5775L18.6618 62.5618L18.5136 62.7858L18.4934 62.8194L18.4733 62.8553C18.4568 62.8829 18.4454 62.9133 18.4396 62.9449C18.436 62.9586 18.4359 62.973 18.4394 62.9867C18.443 63.0004 18.45 63.013 18.4598 63.0233L18.2354 63.357L17.5038 62.8866L17.7282 62.5506C17.7509 62.5506 17.7733 62.546 17.7941 62.5372C17.8149 62.5283 17.8337 62.5154 17.8494 62.4991C17.8856 62.4589 17.9179 62.4154 17.9459 62.3692L18.4553 61.5806L18.4688 61.5627V61.5426C18.4906 61.5124 18.5094 61.4801 18.5249 61.4462C18.5297 61.4278 18.5298 61.4085 18.525 61.3901C18.5203 61.3717 18.511 61.3548 18.4979 61.3409L18.7358 60.9736H18.7403ZM19.1487 61.8069L18.8996 62.1922L18.9333 62.2124C18.9439 62.2212 18.9561 62.228 18.9692 62.2325C19.0089 62.2544 19.0542 62.2638 19.0993 62.2594C19.1442 62.2594 19.1891 62.2123 19.2317 62.1317C19.2527 62.103 19.2676 62.0703 19.2753 62.0356C19.283 62.0009 19.2835 61.965 19.2766 61.9301C19.239 61.8733 19.1882 61.8265 19.1285 61.7935L19.1487 61.8069ZM21.5072 62.685L20.9529 64.2688C20.9381 64.3153 20.929 64.3634 20.926 64.4122C20.9224 64.453 20.9302 64.4941 20.9484 64.5309L20.751 64.8758L19.97 64.4278L20.1698 64.0829C20.1905 64.0831 20.2111 64.0793 20.2303 64.0717C20.2496 64.064 20.2671 64.0525 20.282 64.038C20.307 64.0099 20.3288 63.9791 20.347 63.9462L20.0374 63.7692C20.0181 63.8016 20.003 63.8362 19.9925 63.8723C19.9819 63.9114 19.9868 63.9531 20.0059 63.9888L19.8062 64.3337L19.133 63.9484L19.3417 63.5878H19.3664H19.3866C19.4146 63.5778 19.4405 63.5626 19.4629 63.543C19.4927 63.5159 19.5204 63.4867 19.5459 63.4556L20.6141 62.1899L21.5117 62.7007L21.5072 62.685ZM20.4929 63.5206L20.7375 62.8911L20.3111 63.4153L20.4929 63.5206ZM21.8775 62.8911L22.6427 63.2809L22.452 63.6527C22.4311 63.6497 22.4097 63.6525 22.3903 63.6608C22.3709 63.6691 22.3542 63.6826 22.342 63.6998C22.3148 63.7405 22.2908 63.7832 22.2702 63.8275V63.8499V63.8745L21.7765 64.8445C21.8273 64.873 21.8843 64.8884 21.9426 64.8893C21.9874 64.8893 22.0323 64.8445 22.075 64.7616L22.2635 64.3897L22.8447 64.6832L22.342 65.6689L20.8497 64.9117L21.0292 64.5578C21.0459 64.5612 21.0633 64.5606 21.0797 64.5559C21.0961 64.5512 21.1111 64.5426 21.1235 64.5309C21.1459 64.5089 21.1641 64.4831 21.1773 64.4547V64.439V64.4256V64.4077V64.392L21.6419 63.478C21.6431 63.4721 21.6431 63.466 21.6419 63.4601C21.6451 63.4538 21.6488 63.4478 21.6531 63.4422C21.6686 63.4144 21.6814 63.3851 21.6912 63.3548C21.6965 63.3391 21.6974 63.3223 21.6938 63.3061C21.6902 63.2899 21.6824 63.275 21.671 63.263L21.8595 62.8934L21.8775 62.8911ZM25.358 64.4995L25.0371 66.1482C25.0306 66.1966 25.0306 66.2455 25.0371 66.2938C25.0398 66.3349 25.0538 66.3744 25.0775 66.4081L24.9316 66.7777L24.0946 66.4439L24.236 66.0833C24.2777 66.0776 24.3155 66.0559 24.3415 66.0228C24.3614 65.9914 24.3786 65.9585 24.3931 65.9242L24.061 65.7921C24.047 65.8268 24.0364 65.8628 24.0295 65.8996C24.026 65.9402 24.0371 65.9807 24.061 66.0138L23.9128 66.3835L23.1947 66.099L23.3496 65.7114L23.3743 65.7002L23.3922 65.689C23.4192 65.6756 23.4429 65.6565 23.4618 65.633C23.4876 65.6028 23.5108 65.5706 23.5314 65.5367L24.4065 64.1299L25.3603 64.5085L25.358 64.4995ZM24.4739 65.474L24.6265 64.8154L24.2786 65.3956L24.4739 65.474ZM25.7821 64.6854L26.5182 64.9319L26.5653 66.0295L26.6932 65.6532V65.633V65.6129C26.7057 65.5809 26.7155 65.5479 26.7224 65.5143C26.729 65.4789 26.7226 65.4423 26.7044 65.4112L26.8301 65.0371L27.5235 65.2612L27.3979 65.6353C27.3571 65.6473 27.3216 65.6725 27.2969 65.7069C27.2755 65.7454 27.2582 65.7859 27.2453 65.8279L26.7179 67.396L26.0626 67.172L25.9729 66.0519L25.8584 66.3902C25.8438 66.4333 25.8326 66.4775 25.8248 66.5223C25.8215 66.5429 25.8235 66.564 25.8305 66.5835C25.8376 66.6031 25.8495 66.6206 25.8652 66.6343L25.726 67.051L25.0528 66.827L25.1852 66.4327C25.2201 66.4277 25.252 66.4102 25.275 66.3835C25.294 66.3586 25.3098 66.3315 25.3221 66.3028V66.2782V66.2558V66.2378C25.3218 66.2326 25.3218 66.2274 25.3221 66.2222L25.6295 65.3104V65.2903V65.2679C25.6436 65.2324 25.6541 65.1956 25.661 65.1581C25.662 65.1371 25.6582 65.1162 25.6501 65.0968C25.6419 65.0774 25.6296 65.0601 25.6138 65.0461L25.7417 64.6698L25.7821 64.6854ZM27.5998 65.2948L28.6276 65.5837L28.7331 65.6151C28.7692 65.6277 28.8044 65.6427 28.8385 65.6599C28.9627 65.715 29.0692 65.8034 29.146 65.9153C29.1877 65.9941 29.2117 66.0809 29.2163 66.1699C29.221 66.2589 29.2062 66.3478 29.1729 66.4305L28.9283 67.2929C28.9244 67.3098 28.9192 67.3262 28.9126 67.3422L28.8991 67.3937C28.8453 67.5364 28.751 67.6602 28.6276 67.7499C28.5371 67.8003 28.4361 67.8292 28.3326 67.8342C28.229 67.8393 28.1257 67.8204 28.0307 67.779L26.9805 67.4856L27.0949 67.0846C27.1165 67.0846 27.1377 67.0798 27.1572 67.0705C27.1766 67.0612 27.1936 67.0476 27.2071 67.0308C27.2262 66.9919 27.242 66.9515 27.2542 66.9099L27.537 65.9041C27.5375 65.8929 27.5375 65.8817 27.537 65.8705C27.5381 65.8585 27.5381 65.8465 27.537 65.8346C27.5413 65.8087 27.5413 65.7822 27.537 65.7562C27.5331 65.7431 27.5264 65.731 27.5176 65.7206C27.5087 65.7101 27.4977 65.7017 27.4854 65.6957L27.5998 65.2948ZM28.273 66.0026L27.923 67.2481L27.9454 67.2593H27.9656C28.0093 67.274 28.0566 67.274 28.1003 67.2593C28.1429 67.2437 28.1721 67.1989 28.1945 67.1249L28.4481 66.2289C28.4683 66.1572 28.4615 66.1079 28.4256 66.0788C28.3738 66.0396 28.3141 66.0121 28.2506 65.9982L28.273 66.0026ZM31.482 66.2266L31.4955 67.9067C31.4959 67.9554 31.5034 68.0037 31.5179 68.0501C31.5284 68.0893 31.5494 68.1249 31.5785 68.1531L31.509 68.5452L30.6226 68.3839L30.6921 67.9919C30.7315 67.9769 30.7642 67.9483 30.7841 67.9112C30.7971 67.8763 30.8068 67.8403 30.8133 67.8037L30.4632 67.7387C30.4591 67.7759 30.4591 67.8135 30.4632 67.8507C30.4664 67.8922 30.4857 67.9308 30.5171 67.9583L30.4453 68.3503L29.6846 68.2114L29.7586 67.8015L29.7811 67.7858L29.7968 67.7701C29.8203 67.7516 29.8401 67.7288 29.8551 67.7029C29.8686 67.676 29.8843 67.6402 29.9022 67.5931L30.4834 66.043L31.491 66.2266H31.482ZM30.8088 67.3467L30.8268 66.6747L30.6024 67.3131L30.8088 67.3512V67.3467ZM32.7634 67.2616L32.7948 67.0107C32.7984 66.9924 32.798 66.9736 32.7938 66.9554C32.7895 66.9373 32.7815 66.9202 32.7701 66.9054C32.7612 66.8933 32.7498 66.8832 32.7366 66.8759C32.7234 66.8685 32.7089 66.8641 32.6938 66.8628C32.6766 66.8611 32.6592 66.8632 32.6429 66.869C32.6266 66.8749 32.6118 66.8842 32.5996 66.8964C32.5669 66.9312 32.5478 66.9765 32.5457 67.0241L32.4156 68.0613C32.4097 68.1021 32.4193 68.1437 32.4425 68.1778C32.4514 68.1919 32.4632 68.204 32.4771 68.2133C32.4911 68.2225 32.5068 68.2288 32.5233 68.2316C32.5541 68.2333 32.5844 68.2238 32.6086 68.2047C32.638 68.1736 32.6555 68.1331 32.6579 68.0904L32.7006 67.7365L33.4052 67.8238L33.3154 68.5474C33.2337 68.6317 33.1231 68.6821 33.0058 68.6885C32.8482 68.7112 32.6886 68.7157 32.53 68.702H32.4919H32.4537C32.2411 68.6844 32.038 68.6067 31.868 68.478C31.7912 68.4092 31.7339 68.3214 31.702 68.2235C31.6701 68.1255 31.6646 68.0209 31.6863 67.9202L31.8029 66.9883C31.8069 66.8902 31.8318 66.7942 31.8759 66.7065C31.92 66.6188 31.9824 66.5415 32.0588 66.4798C32.2393 66.3715 32.4538 66.3348 32.6602 66.3767C32.8277 66.3964 32.9926 66.4348 33.1516 66.491C33.293 66.5457 33.4254 66.6212 33.5443 66.715L33.4635 67.3557L32.7612 67.2705L32.7634 67.2616ZM34.9648 66.6366L35.1511 68.3055C35.1574 68.354 35.1702 68.4015 35.1892 68.4466C35.2039 68.4846 35.2288 68.5179 35.261 68.5429L35.2319 68.9394L34.3342 68.87L34.3657 68.4735C34.4033 68.4554 34.4323 68.4232 34.4464 68.3839C34.4561 68.3479 34.4629 68.3112 34.4666 68.2741L34.1098 68.2472C34.1064 68.2845 34.1064 68.322 34.1098 68.3592C34.1187 68.3995 34.1418 68.4353 34.1749 68.46L34.1435 68.8565L33.3738 68.7983L33.4052 68.3816L33.4254 68.3637L33.4389 68.348C33.4605 68.3268 33.478 68.3017 33.4905 68.2741C33.5047 68.2368 33.5166 68.1986 33.5264 68.1599L33.9415 66.5582L34.9648 66.6366ZM34.4128 67.8283L34.3589 67.1563L34.2018 67.8149L34.4128 67.8306V67.8283ZM35.4002 66.6724L36.4661 66.7038H36.5783C36.616 66.7077 36.6534 66.7137 36.6905 66.7217C36.8243 66.745 36.9488 66.8056 37.0495 66.8964C37.1099 66.9622 37.155 67.0405 37.1813 67.1257C37.2077 67.211 37.2148 67.301 37.2021 67.3893L37.1775 68.2853C37.1775 68.3032 37.1775 68.3189 37.1775 68.3368C37.1775 68.3548 37.1775 68.3704 37.1775 68.3884C37.1614 68.5401 37.1005 68.6835 37.0024 68.8005C36.9268 68.8713 36.8358 68.9237 36.7365 68.9537C36.6373 68.9836 36.5324 68.9902 36.4302 68.973L35.3396 68.9439L35.353 68.5272C35.4069 68.5078 35.4383 68.4809 35.4473 68.4466C35.4557 68.4061 35.4588 68.3647 35.4563 68.3234L35.4854 67.2773V67.2437C35.4876 67.2311 35.4876 67.2182 35.4854 67.2056C35.48 67.1802 35.4701 67.1559 35.4563 67.1339C35.4492 67.122 35.4398 67.1117 35.4286 67.1036C35.4174 67.0955 35.4047 67.0898 35.3912 67.0869L35.4024 66.6702L35.4002 66.6724ZM36.2215 67.1966L36.1856 68.4914H36.2103H36.2574C36.3031 68.4932 36.3481 68.4798 36.3853 68.4533C36.406 68.4337 36.4219 68.4095 36.4316 68.3827C36.4414 68.3558 36.4447 68.3271 36.4414 68.2988L36.4683 67.3601C36.4683 67.2885 36.4504 67.2414 36.41 67.2213C36.35 67.1977 36.2859 67.1863 36.2215 67.1877V67.1966ZM37.2336 66.7195L38.9503 66.6702L38.9727 67.4609L38.2995 67.4811V67.3355C38.3005 67.3134 38.2957 67.2913 38.2855 67.2716C38.2752 67.252 38.2599 67.2354 38.2411 67.2235C38.2009 67.1984 38.1538 67.1866 38.1065 67.1899H38.0908H38.0773H38.0459L38.0571 67.6066L38.5059 67.5931L38.5194 68.0411L38.0706 68.0523V68.5004H38.1245C38.1522 68.5023 38.1801 68.4985 38.2063 68.4892C38.2326 68.48 38.2566 68.4655 38.277 68.4466C38.3042 68.4122 38.3185 68.3694 38.3174 68.3256V68.1576L38.9907 68.1397L39.0131 68.9529L37.2986 69.0022L37.2852 68.5855C37.3001 68.5794 37.3133 68.5696 37.3235 68.5571C37.3337 68.5446 37.3406 68.5297 37.3435 68.5138C37.347 68.4818 37.347 68.4495 37.3435 68.4175V68.3749L37.3121 67.3086C37.3124 67.272 37.3063 67.2356 37.2942 67.2011C37.2837 67.1711 37.266 67.1442 37.2425 67.1227L37.2313 66.7262L37.2336 66.7195ZM38.9884 66.6567L39.9085 66.5873L40.2024 67.443L40.3663 66.547L41.2437 66.4798L41.2729 66.874L41.2616 66.8852C41.2351 66.9142 41.2193 66.9514 41.2168 66.9905C41.2119 67.0651 41.2119 67.1399 41.2168 67.2145L41.2908 68.0994C41.2939 68.1545 41.3021 68.2093 41.3155 68.2629C41.3211 68.2823 41.3315 68.3 41.3455 68.3144C41.3596 68.3289 41.3771 68.3396 41.3963 68.3458L41.4277 68.7602L40.5705 68.8252L40.5391 68.4108C40.5817 68.3884 40.6064 68.3615 40.6086 68.3301C40.6139 68.2817 40.6139 68.2329 40.6086 68.1845C40.6097 68.1733 40.6097 68.1621 40.6086 68.1509C40.6086 68.1375 40.6086 68.124 40.6086 68.1106L40.5705 67.611L40.3461 68.8431L40.1351 68.8588L39.72 67.6962L39.7581 68.2181C39.7618 68.2701 39.7693 68.3218 39.7806 68.3727C39.7858 68.3933 39.7962 68.4124 39.8107 68.428C39.8252 68.4437 39.8434 68.4555 39.8636 68.4623L39.895 68.8789L39.1635 68.9349L39.132 68.5183C39.1769 68.5071 39.2016 68.4847 39.2061 68.4556C39.2094 68.419 39.2094 68.3823 39.2061 68.3458C39.2061 68.3458 39.2061 68.3324 39.2061 68.3234C39.2072 68.3167 39.2072 68.3099 39.2061 68.3032L39.1298 67.2817C39.1287 67.2751 39.1287 67.2683 39.1298 67.2616C39.1298 67.2616 39.1298 67.2481 39.1298 67.2392C39.1292 67.2015 39.1247 67.1639 39.1163 67.1272C39.1163 67.0958 39.0782 67.0734 39.031 67.0577L39.0019 66.6635L38.9884 66.6567ZM41.3177 66.4327L42.2154 66.323L42.2647 66.715C42.2317 66.7445 42.2108 66.7852 42.2064 66.8292C42.2031 66.871 42.2031 66.9129 42.2064 66.9547L42.3298 67.9493C42.3353 67.9962 42.3443 68.0426 42.3567 68.0882C42.3671 68.1139 42.3832 68.1369 42.4039 68.1554L42.4218 68.1711L42.442 68.1868L42.4914 68.581L41.5938 68.6908L41.5466 68.2965C41.5817 68.2671 41.6042 68.2254 41.6095 68.18C41.6138 68.1398 41.6138 68.0993 41.6095 68.0591C41.6084 68.0524 41.6084 68.0456 41.6095 68.0389C41.6095 68.0389 41.6095 68.0255 41.6095 68.0187L41.4905 67.0443V67.0264C41.4894 67.0197 41.4894 67.0129 41.4905 67.0062C41.4886 66.9718 41.4818 66.9379 41.4703 66.9054C41.4623 66.8862 41.45 66.869 41.4345 66.855C41.419 66.8411 41.4006 66.8307 41.3806 66.8248L41.3335 66.4327H41.3177ZM43.3374 66.9547L43.2925 66.706C43.2911 66.6873 43.2856 66.6692 43.2763 66.6529C43.267 66.6366 43.2541 66.6226 43.2387 66.6119C43.2265 66.6032 43.2126 66.5971 43.1979 66.594C43.1832 66.5909 43.1681 66.5909 43.1534 66.594C43.1367 66.5972 43.121 66.6041 43.1074 66.6142C43.0938 66.6242 43.0827 66.6373 43.0748 66.6523C43.0528 66.6951 43.0472 66.7445 43.0591 66.7912L43.2476 67.8194C43.2496 67.8397 43.2558 67.8593 43.2658 67.8771C43.2759 67.8948 43.2896 67.9103 43.306 67.9224C43.3191 67.9329 43.3342 67.9406 43.3504 67.9452C43.3666 67.9498 43.3835 67.9512 43.4002 67.9493C43.4155 67.9464 43.43 67.9404 43.4428 67.9315C43.4556 67.9226 43.4663 67.9111 43.4743 67.8978C43.4849 67.8793 43.4916 67.8588 43.4939 67.8376C43.4962 67.8164 43.4941 67.7949 43.4877 67.7746L43.4249 67.4251L44.1228 67.2974L44.253 68.0143C44.1987 68.1173 44.1085 68.197 43.9994 68.2383C43.856 68.3057 43.7054 68.3568 43.5506 68.3906H43.5124H43.4743C43.2648 68.4349 43.047 68.4193 42.8459 68.3458C42.7515 68.3038 42.6701 68.237 42.6105 68.1526C42.5508 68.0683 42.5151 67.9694 42.5071 67.8664L42.3455 66.9793C42.3196 66.8845 42.3144 66.7852 42.3302 66.6882C42.3461 66.5912 42.3827 66.4987 42.4375 66.4171C42.5777 66.2607 42.7715 66.1624 42.9806 66.1415C43.1461 66.1091 43.3148 66.0963 43.4833 66.1034C43.6374 66.1124 43.789 66.1465 43.9321 66.2042L44.0488 66.8404L43.3509 66.9681L43.3374 66.9547ZM44.7197 65.8189L46.3714 65.3552L46.5958 66.1191L45.9517 66.3006L45.9136 66.1594C45.9086 66.1378 45.8981 66.1178 45.8832 66.1013C45.8683 66.0848 45.8494 66.0725 45.8283 66.0654C45.7829 66.0519 45.7346 66.0519 45.6892 66.0654H45.6735H45.6622H45.6465H45.6331L45.7453 66.4663L46.1941 66.3431L46.3153 66.7665L45.8664 66.892L45.9854 67.3131H46.0146H46.037C46.0646 67.3089 46.091 67.2987 46.1143 67.2833C46.1376 67.2678 46.1571 67.2474 46.1716 67.2235C46.1874 67.1832 46.1874 67.1384 46.1716 67.0981L46.1268 66.9368L46.7708 66.7553L46.9952 67.5394L45.3413 68.0031L45.2291 67.6021C45.2425 67.5926 45.2531 67.5797 45.2598 67.5647C45.2665 67.5497 45.2691 67.5332 45.2673 67.517C45.2627 67.4857 45.2552 67.4549 45.2448 67.4251C45.2458 67.4207 45.2458 67.4161 45.2448 67.4117V67.3848L44.9554 66.3588C44.9458 66.3231 44.9307 66.289 44.9105 66.258C44.8939 66.231 44.8708 66.2086 44.8432 66.193L44.7354 65.8145L44.7197 65.8189ZM46.4387 65.3508L47.2286 65.0775L47.3094 65.3127C47.3264 65.3579 47.3515 65.3996 47.3834 65.4359C47.4193 65.4798 47.4599 65.5197 47.5046 65.5546L47.5181 65.4762C47.5181 65.4516 47.5181 65.4269 47.5181 65.4023C47.5204 65.3762 47.5204 65.35 47.5181 65.3239C47.5151 65.2971 47.509 65.2708 47.5001 65.2455L47.4171 65.0103L48.1105 64.7706L48.2407 65.1447L48.2474 65.1872L48.2339 65.2164V65.2298V65.2455C48.2339 65.2634 48.2205 65.2791 48.216 65.2948C48.2097 65.3081 48.2059 65.3226 48.2048 65.3373L48.0589 65.9399L48.5818 66.4238L48.6109 66.4484L48.6446 66.4753L48.6581 66.4887L48.6738 66.4999L48.7164 66.5358L48.759 66.5604L48.8892 66.9368L48.0791 67.2168L47.9893 66.9592C47.968 66.8985 47.937 66.8418 47.8973 66.7912C47.8543 66.7366 47.8045 66.6877 47.7492 66.6455C47.739 66.6929 47.7315 66.7407 47.7268 66.7889C47.7184 66.8514 47.7184 66.9146 47.7268 66.9771C47.7268 66.9995 47.738 67.0196 47.7447 67.042L47.8345 67.2974L47.1613 67.5214L47.0311 67.1473C47.0456 67.1236 47.0584 67.0989 47.0693 67.0734C47.0791 67.0465 47.0866 67.0187 47.0917 66.9905C47.0935 66.9659 47.0935 66.9412 47.0917 66.9166C47.0917 66.8942 47.0917 66.874 47.0917 66.8561L47.2219 66.2132L46.8314 65.9085L46.782 65.8682L46.7214 65.8212L46.6923 65.801L46.6631 65.7809L46.6115 65.7495C46.5984 65.7411 46.584 65.7351 46.5688 65.7316L46.4409 65.3575L46.4387 65.3508ZM49.356 65.1872L49.2662 64.9632C49.261 64.945 49.2519 64.9282 49.2395 64.9138C49.2271 64.8995 49.2117 64.8881 49.1944 64.8803C49.1663 64.8692 49.135 64.8692 49.1069 64.8803C49.0913 64.8865 49.0773 64.8962 49.066 64.9086C49.0547 64.9211 49.0464 64.9359 49.0418 64.952C49.028 64.9981 49.032 65.0476 49.053 65.0909L49.4323 66.0654C49.4385 66.0849 49.4487 66.1029 49.4622 66.1183C49.4757 66.1337 49.4923 66.1462 49.5108 66.155C49.5261 66.1614 49.5425 66.1648 49.559 66.1648C49.5756 66.1648 49.592 66.1614 49.6073 66.155C49.6214 66.1489 49.634 66.1401 49.6445 66.1289C49.6549 66.1177 49.6629 66.1044 49.6679 66.09C49.6842 66.0505 49.6842 66.0062 49.6679 65.9668L49.5377 65.6353L50.1997 65.3776L50.4645 66.0497C50.4316 66.1624 50.3581 66.259 50.2581 66.3207C50.1303 66.4141 49.9926 66.493 49.8474 66.5559L49.8115 66.5716L49.7756 66.5851C49.5792 66.6693 49.3627 66.6957 49.1517 66.6612C49.0507 66.6381 48.9578 66.5883 48.8828 66.5169C48.8078 66.4456 48.7534 66.3554 48.7254 66.2558L48.382 65.4112C48.3392 65.3229 48.3156 65.2265 48.3129 65.1284C48.3102 65.0303 48.3284 64.9328 48.3663 64.8422C48.4739 64.6615 48.6451 64.5273 48.8465 64.4659C49.0027 64.404 49.1653 64.3597 49.3313 64.3337C49.4807 64.3166 49.6319 64.3211 49.7801 64.3472L50.0045 64.952L49.3694 65.1984L49.356 65.1872ZM49.7532 64.1277L51.324 63.422L51.6494 64.1433L51.0412 64.4189L50.9806 64.2867C50.9727 64.2658 50.9594 64.2474 50.9421 64.2332C50.9247 64.2191 50.904 64.2097 50.8819 64.2061C50.8353 64.1996 50.7878 64.2066 50.745 64.2262H50.7316H50.7181H50.7024L50.8752 64.6048L51.2948 64.4166L51.4766 64.8176L51.0569 65.0058L51.2387 65.4045H51.2634L51.2881 65.3933C51.3143 65.3851 51.3383 65.3712 51.3585 65.3526C51.3787 65.334 51.3945 65.3112 51.4048 65.2858C51.4214 65.2448 51.4214 65.1991 51.4048 65.1581L51.3375 65.0058L51.9456 64.7302L52.2822 65.474L50.7114 66.1796L50.5408 65.7988C50.5518 65.7869 50.5598 65.7726 50.5641 65.757C50.5684 65.7414 50.5689 65.725 50.5655 65.7092C50.5564 65.6789 50.5444 65.6497 50.5296 65.6218V65.6084V65.5949V65.5837L50.0808 64.6115C50.0654 64.578 50.0449 64.547 50.0202 64.5197C50 64.4953 49.9737 64.4767 49.9439 64.4659L49.7823 64.1053L49.7532 64.1277ZM51.324 63.4063L52.0915 63.021L52.2867 63.3951C52.272 63.4103 52.2619 63.4292 52.2576 63.4498C52.2532 63.4704 52.2547 63.4918 52.262 63.5116C52.2774 63.5584 52.2977 63.6035 52.3226 63.646C52.3218 63.6535 52.3218 63.661 52.3226 63.6684C52.3272 63.6762 52.331 63.6845 52.3338 63.6931L52.8253 64.663C52.8794 64.6406 52.9261 64.6034 52.9599 64.5555C52.9868 64.5174 52.9779 64.457 52.9352 64.3741L52.7467 64.0022L53.3279 63.7088L53.8284 64.6966L52.3338 65.4493L52.1543 65.0954C52.1671 65.0841 52.1769 65.0697 52.1827 65.0537C52.1886 65.0377 52.1904 65.0204 52.188 65.0035C52.1827 64.9724 52.1728 64.9422 52.1588 64.9139V64.9005V64.8871V64.8691V64.8535L51.6965 63.9395C51.6933 63.9332 51.6895 63.9272 51.6853 63.9216C51.6861 63.9149 51.6861 63.9081 51.6853 63.9014C51.6728 63.8721 51.657 63.8443 51.6382 63.8185C51.6283 63.8055 51.6154 63.7951 51.6004 63.7885C51.5855 63.7818 51.5692 63.7791 51.5529 63.7804L51.3644 63.4086L51.324 63.4063ZM52.8028 62.6357L53.5456 62.2056L53.7543 62.5663C53.7402 62.5822 53.7308 62.6018 53.7273 62.6228C53.7237 62.6438 53.7261 62.6653 53.7341 62.685C53.7539 62.7289 53.7764 62.7715 53.8014 62.8127L53.8149 62.8373L53.8284 62.8597L54.3759 63.8006C54.428 63.7746 54.4722 63.7352 54.5038 63.6863C54.5263 63.646 54.5038 63.5855 54.4679 63.5049L54.2592 63.1442L54.8225 62.8194L55.3768 63.776L53.9293 64.6138L53.7296 64.2688C53.7414 64.2569 53.75 64.2423 53.7547 64.2263C53.7594 64.2102 53.76 64.1933 53.7565 64.1769C53.75 64.1462 53.7387 64.1167 53.7229 64.0896V64.0761V64.0627L53.7117 64.047V64.0313L53.1978 63.1353L53.1866 63.1174V63.0994C53.1712 63.0714 53.1539 63.0445 53.1349 63.0188C53.1242 63.0066 53.1105 62.9974 53.0952 62.9919C53.0799 62.9864 53.0635 62.9849 53.0474 62.9874L52.8365 62.6268L52.8028 62.6357ZM54.2794 61.7397L55.7246 60.819L56.1532 61.491L55.5877 61.8517L55.5092 61.7285C55.4988 61.7087 55.4834 61.6921 55.4644 61.6803C55.4455 61.6685 55.4238 61.6619 55.4014 61.6613C55.3544 61.6618 55.3084 61.6758 55.269 61.7016H55.2556H55.2421L55.2286 61.7128L55.4531 62.0623L55.8413 61.8159L56.0791 62.1877L55.6909 62.4341L55.9153 62.8037L55.94 62.7903L55.9625 62.7769C55.9872 62.7642 56.009 62.7465 56.0264 62.7249C56.0438 62.7033 56.0564 62.6782 56.0634 62.6514C56.0701 62.6084 56.0605 62.5645 56.0365 62.5282L55.9467 62.3871L56.51 62.0264L56.9588 62.7141L55.5114 63.6348L55.287 63.2854C55.2951 63.271 55.2993 63.2548 55.2993 63.2383C55.2993 63.2219 55.2951 63.2057 55.287 63.1913C55.2747 63.1626 55.2589 63.1355 55.2399 63.1106V63.0972V63.086L54.6654 62.1899C54.6449 62.1589 54.6199 62.131 54.5913 62.1071C54.5674 62.087 54.5389 62.0732 54.5083 62.0667L54.2951 61.733L54.2794 61.7397ZM55.7672 60.7787L56.3754 60.2993L57.3224 60.8616L57.0755 60.5479L57.062 60.53L57.0486 60.5143C57.0292 60.487 57.0075 60.4615 56.9835 60.4382C56.9701 60.4263 56.9545 60.4172 56.9375 60.4114C56.9206 60.4057 56.9026 60.4033 56.8848 60.4046L56.6402 60.0932L57.2146 59.6452L57.4592 59.9543C57.4443 59.9948 57.4443 60.0393 57.4592 60.0798C57.4806 60.1178 57.5054 60.1538 57.5333 60.1873L58.5543 61.4843L58.0113 61.9099L57.0306 61.379L57.255 61.6568C57.2836 61.6936 57.3151 61.7281 57.3493 61.7599C57.3652 61.7733 57.384 61.7828 57.4043 61.7875C57.4246 61.7922 57.4458 61.7919 57.466 61.7867L57.7353 62.1295L57.1765 62.5775L56.9162 62.2751C56.9294 62.242 56.9294 62.2051 56.9162 62.172C56.9059 62.143 56.8923 62.1152 56.8758 62.0891L56.8578 62.069L56.8421 62.0533L56.8309 62.0376L56.8197 62.0242L56.225 61.2693L56.2115 61.2513L56.1981 61.2334C56.1748 61.2018 56.1485 61.1725 56.1195 61.1461C56.1031 61.1337 56.084 61.1252 56.0638 61.1213C56.0436 61.1174 56.0227 61.1182 56.0028 61.1237L55.7582 60.8123L55.7672 60.7787ZM58.57 59.6161L58.404 59.4256C58.3934 59.4101 58.3794 59.3972 58.3631 59.3879C58.3468 59.3785 58.3285 59.3731 58.3097 59.3719C58.2948 59.3705 58.2797 59.3721 58.2654 59.3767C58.2512 59.3814 58.238 59.3889 58.2267 59.3988C58.214 59.4103 58.2039 59.4245 58.1973 59.4404C58.1907 59.4563 58.1877 59.4734 58.1886 59.4906C58.1922 59.5387 58.2129 59.584 58.2469 59.6183L58.9336 60.4068C58.9458 60.4231 58.9613 60.4367 58.9791 60.4467C58.9969 60.4567 59.0165 60.463 59.0368 60.4651C59.0534 60.4677 59.0703 60.4669 59.0865 60.4626C59.1027 60.4584 59.1179 60.4508 59.1311 60.4404C59.1425 60.4302 59.1518 60.4178 59.1583 60.404C59.1649 60.3901 59.1686 60.3751 59.1692 60.3598C59.167 60.3166 59.1485 60.2758 59.1176 60.2455L58.8932 59.9767L59.4273 59.513L59.9075 60.0641C59.9133 60.1812 59.8766 60.2965 59.8043 60.3889C59.716 60.5205 59.6128 60.6415 59.4968 60.7496L59.4677 60.7742L59.4385 60.7988C59.2828 60.9452 59.0879 61.0432 58.8775 61.0811C58.7747 61.093 58.6705 61.0772 58.5758 61.0355C58.4812 60.9937 58.3994 60.9275 58.3389 60.8436L57.7218 60.1335C57.6519 60.065 57.5974 59.9824 57.5618 59.8913C57.5262 59.8002 57.5104 59.7025 57.5153 59.6049C57.5558 59.3987 57.6718 59.215 57.8407 59.0896C57.9665 58.9774 58.1051 58.8804 58.2536 58.8007C58.3899 58.7321 58.536 58.6852 58.6867 58.6618L59.1131 59.1501L58.57 59.6161ZM58.6104 58.4803L59.8559 57.2998L60.4034 57.8755L59.9165 58.337L59.8155 58.2294C59.8011 58.2127 59.7825 58.1999 59.7617 58.1925C59.7408 58.185 59.7184 58.1831 59.6966 58.1869C59.6498 58.1943 59.6066 58.2162 59.5731 58.2496C59.5706 58.2544 59.5667 58.2583 59.5619 58.2608C59.5619 58.2608 59.5619 58.2608 59.5619 58.272L59.5507 58.2832L59.5395 58.2966L59.8267 58.599L60.1611 58.2832L60.464 58.6013L60.1409 58.9149L60.4438 59.233L60.4663 59.2151L60.4842 59.1994C60.5061 59.182 60.5242 59.1603 60.5373 59.1356C60.5504 59.111 60.5583 59.0839 60.5605 59.056C60.5582 59.0122 60.5398 58.9707 60.5089 58.9395L60.3945 58.8186L60.8792 58.3593L61.4424 58.9485L60.197 60.129L59.9097 59.8266C59.9176 59.8126 59.9217 59.7968 59.9217 59.7807C59.9217 59.7646 59.9176 59.7488 59.9097 59.7348C59.8914 59.7081 59.8703 59.6833 59.8469 59.6609H59.8357V59.6497L59.0996 58.8746C59.0751 58.8476 59.0463 58.8249 59.0144 58.8074C58.9868 58.7922 58.9561 58.7838 58.9246 58.7827L58.6508 58.496L58.6104 58.4803Z" fill="white"/>
<path d="M22.9273 54.5558V54.2242C22.9525 54.2195 22.9758 54.2079 22.9947 54.1906C23.0099 54.1745 23.0201 54.1543 23.0238 54.1324C23.0238 54.11 23.0238 54.0719 23.0238 54.0204V53.1087C23.0267 53.0581 23.0214 53.0074 23.0081 52.9586C22.9997 52.9429 22.9874 52.9296 22.9726 52.9198C22.9577 52.9101 22.9406 52.9041 22.9229 52.9026V52.5845H24.2693V53.1893H23.8698V53.1714C23.8727 53.1433 23.8698 53.1149 23.8613 53.0879C23.8528 53.061 23.8389 53.036 23.8205 53.0146C23.7702 52.9792 23.7088 52.9633 23.6477 52.9698H23.4726V53.3708H24.0112V53.7023H23.4973V54.0204C23.4953 54.0718 23.5013 54.1232 23.5153 54.1727C23.5224 54.1886 23.5341 54.2019 23.5489 54.2111C23.5637 54.2203 23.5809 54.2249 23.5983 54.2242V54.5558H22.9273Z" fill="white"/>
<path d="M24.5048 53.2477C24.5048 53.1536 24.5048 53.0819 24.5048 53.0237C24.5086 52.9712 24.5184 52.9193 24.5339 52.8691C24.5479 52.819 24.5723 52.7724 24.6058 52.7324C24.663 52.6611 24.7416 52.6101 24.8302 52.5868C24.9414 52.5536 25.0574 52.5384 25.1735 52.542C25.2874 52.5384 25.4011 52.5535 25.5101 52.5868C25.598 52.6115 25.6763 52.6623 25.7345 52.7324C25.7815 52.7896 25.8117 52.8586 25.822 52.9318C25.8354 53.035 25.8414 53.1391 25.84 53.2432V53.8883C25.8368 53.9965 25.8255 54.1044 25.8063 54.2109C25.7965 54.2843 25.7661 54.3533 25.7188 54.4103C25.6606 54.4805 25.5823 54.5313 25.4944 54.5559C25.3848 54.5899 25.2703 54.6058 25.1555 54.6029C25.0393 54.6059 24.9234 54.59 24.8122 54.5559C24.7237 54.5327 24.645 54.4816 24.5878 54.4103C24.5552 54.3706 24.5308 54.325 24.516 54.2759C24.5005 54.2256 24.4907 54.1738 24.4868 54.1213C24.4868 54.0675 24.4868 53.9936 24.4868 53.8973L24.5048 53.2477ZM24.9536 53.232V53.904C24.947 53.982 24.9642 54.06 25.003 54.128C25.0222 54.1517 25.047 54.1703 25.0752 54.182C25.1034 54.1938 25.1341 54.1983 25.1645 54.1952C25.1949 54.1987 25.2256 54.1942 25.2536 54.182C25.2816 54.1698 25.3058 54.1504 25.3239 54.1258C25.3612 54.0573 25.3775 53.9794 25.371 53.9018V53.2297C25.3771 53.1521 25.3608 53.0743 25.3239 53.0057C25.3055 52.9815 25.2812 52.9623 25.2533 52.9502C25.2254 52.938 25.1948 52.9332 25.1645 52.9363C25.1335 52.9329 25.1022 52.9375 25.0735 52.9496C25.0448 52.9618 25.0198 52.9811 25.0007 53.0057C24.9645 53.0753 24.9497 53.154 24.9581 53.232H24.9536Z" fill="white"/>
<path d="M26.0913 52.9033V52.5852H26.7645V52.9033C26.7458 52.9081 26.7285 52.9173 26.714 52.9302C26.6996 52.943 26.6884 52.9592 26.6815 52.9772C26.6675 53.0313 26.6614 53.0872 26.6635 53.143V53.9069C26.662 53.9621 26.6688 54.0172 26.6837 54.0704C26.6949 54.1085 26.7176 54.1422 26.7488 54.1667C26.7856 54.1899 26.8288 54.2009 26.8722 54.1981C27.0159 54.1981 27.0966 54.104 27.0966 53.9136V53.0915C27.0987 53.0478 27.0911 53.0042 27.0742 52.9638C27.0557 52.9353 27.0266 52.9152 26.9934 52.9078V52.5897H27.5903V52.9078C27.5721 52.9096 27.5546 52.9161 27.5397 52.9267C27.5247 52.9373 27.5128 52.9516 27.5051 52.9683C27.4889 53.0166 27.4821 53.0675 27.4849 53.1183V53.936C27.4849 54.0122 27.4849 54.0749 27.4849 54.1286C27.479 54.1785 27.467 54.2274 27.449 54.2742C27.4311 54.322 27.4044 54.3661 27.3704 54.4042C27.3146 54.4689 27.2437 54.5189 27.164 54.5498C27.0731 54.5849 26.9764 54.6023 26.879 54.6013C26.7756 54.604 26.6725 54.5897 26.5738 54.5587C26.4973 54.5341 26.4285 54.4901 26.3741 54.4311C26.3203 54.366 26.2827 54.2893 26.2641 54.207C26.24 54.105 26.2287 54.0004 26.2304 53.8957V53.1004C26.2327 53.0549 26.2266 53.0094 26.2125 52.966C26.1981 52.9474 26.1798 52.9321 26.1589 52.9213C26.1379 52.9104 26.1149 52.9043 26.0913 52.9033Z" fill="white"/>
<path d="M27.8262 54.5565V54.225C27.8435 54.225 27.8604 54.2202 27.8751 54.2111C27.8898 54.202 27.9016 54.189 27.9092 54.1734C27.9234 54.1255 27.9295 54.0755 27.9272 54.0256V53.0735C27.9297 53.0329 27.9228 52.9923 27.907 52.9548C27.8983 52.9407 27.8865 52.9287 27.8725 52.9198C27.8585 52.9109 27.8427 52.9052 27.8262 52.9033V52.5852H28.3423L28.8382 53.6941V53.1027C28.8414 53.0538 28.8337 53.0049 28.8158 52.9593C28.8074 52.9441 28.7955 52.931 28.781 52.9213C28.7666 52.9116 28.7501 52.9054 28.7328 52.9033V52.5852H29.3589V52.9033C29.3304 52.9097 29.3046 52.9245 29.2848 52.9459C29.2688 52.963 29.2593 52.9852 29.2579 53.0086C29.2547 53.0474 29.2547 53.0863 29.2579 53.1251V54.5565H28.845L28.349 53.4364V54.0256C28.3467 54.0755 28.3528 54.1255 28.367 54.1734C28.3757 54.1885 28.3881 54.2012 28.403 54.2102C28.4179 54.2192 28.4348 54.2243 28.4523 54.225V54.5565H27.8262Z" fill="white"/>
<path d="M30.2631 54.5565H29.6078V54.225C29.633 54.2203 29.6563 54.2086 29.6751 54.1914C29.6898 54.1751 29.6992 54.1548 29.7021 54.1331C29.7053 54.0959 29.7053 54.0584 29.7021 54.0211V53.1094C29.7046 53.0587 29.6986 53.008 29.6841 52.9593C29.6762 52.9437 29.6644 52.9304 29.6499 52.9206C29.6353 52.9108 29.6185 52.9048 29.6011 52.9033V52.5852H30.2563C30.4086 52.5801 30.5606 52.602 30.7051 52.6502C30.7573 52.6702 30.8049 52.7003 30.8453 52.7387C30.8858 52.7772 30.9182 52.8232 30.9408 52.8742C30.9956 53.0169 31.02 53.1695 31.0126 53.3222V53.7926C31.0159 53.9198 31.0039 54.0469 30.9767 54.1712C30.9579 54.2557 30.9159 54.3332 30.8555 54.3952C30.7924 54.4533 30.7149 54.4935 30.6311 54.5117C30.5106 54.5411 30.3871 54.5561 30.2631 54.5565ZM30.1666 54.1623H30.2945C30.3405 54.1633 30.3864 54.1587 30.4314 54.1488C30.4631 54.1446 30.4925 54.1296 30.5144 54.1062C30.5352 54.0829 30.5492 54.0542 30.5548 54.0234C30.5591 53.9779 30.5591 53.9322 30.5548 53.8867V53.2908C30.5561 53.2284 30.5501 53.166 30.5368 53.1049C30.5325 53.0844 30.5241 53.0649 30.5122 53.0476C30.5002 53.0303 30.485 53.0155 30.4673 53.0041C30.4169 52.9805 30.3613 52.9697 30.3057 52.9727H30.1509L30.1666 54.1623Z" fill="white"/>
<path d="M31.2997 54.5565V54.225C31.325 54.2208 31.3485 54.2091 31.367 54.1914C31.3823 54.1753 31.3925 54.155 31.3962 54.1331C31.3994 54.0959 31.3994 54.0584 31.3962 54.0211V53.1094C31.3988 53.0587 31.3927 53.008 31.3782 52.9593C31.3698 52.9437 31.3576 52.9304 31.3427 52.9206C31.3278 52.9108 31.3107 52.9049 31.293 52.9033V52.5852H32.6843V53.1878H32.2557V53.1676C32.2595 53.1386 32.2568 53.1091 32.2479 53.0812C32.2389 53.0534 32.224 53.0278 32.2041 53.0063C32.1496 52.9709 32.0847 52.9551 32.02 52.9615H31.8652V53.3737H32.406V53.7053H31.8652V54.1802H32.0649C32.0936 54.1838 32.1228 54.1815 32.1506 54.1734C32.1784 54.1653 32.2042 54.1516 32.2265 54.1331C32.2601 54.0847 32.2752 54.0259 32.2691 53.9674V53.8957H32.6978V54.5565H31.2997Z" fill="white"/>
<path d="M33.5956 54.5564H32.9381V54.2249C32.9632 54.2202 32.9866 54.2085 33.0054 54.1913C33.0207 54.1752 33.0308 54.1549 33.0346 54.133C33.0346 54.1106 33.0346 54.0725 33.0346 54.021V53.1093C33.0375 53.0587 33.0322 53.0081 33.0189 52.9592C33.0104 52.9436 32.9982 52.9303 32.9833 52.9205C32.9684 52.9107 32.9513 52.9048 32.9336 52.9032V52.5851H33.5911C33.7434 52.5803 33.8953 52.6023 34.0399 52.6501C34.1396 52.695 34.2193 52.7746 34.2643 52.8741C34.3181 53.0171 34.3425 53.1695 34.3361 53.3221V53.7925C34.3383 53.9197 34.3263 54.0466 34.3002 54.1711C34.2818 54.2562 34.2389 54.334 34.1768 54.3951C34.1143 54.454 34.0366 54.4944 33.9524 54.5116C33.8356 54.5401 33.7159 54.5552 33.5956 54.5564ZM33.4969 54.1621H33.6293C33.676 54.163 33.7227 54.1585 33.7684 54.1487C33.7998 54.1434 33.8288 54.1285 33.8514 54.1061C33.8708 54.0821 33.8839 54.0536 33.8896 54.0233C33.895 53.9779 33.895 53.932 33.8896 53.8866V53.2907C33.892 53.2282 33.886 53.1657 33.8716 53.1048C33.8676 53.0841 33.8594 53.0645 33.8474 53.0471C33.8354 53.0298 33.82 53.0151 33.802 53.004C33.7525 52.9801 33.6976 52.9693 33.6427 52.9726H33.4856L33.4969 54.1621Z" fill="white"/>
<path d="M35.9048 53.0421V54.0367C35.9017 54.0847 35.9085 54.1327 35.925 54.1779C35.9337 54.1916 35.9456 54.2031 35.9597 54.2113C35.9737 54.2195 35.9896 54.2241 36.0058 54.2249V54.5564H35.4336V54.2249C35.5054 54.2249 35.5413 54.1667 35.5413 54.0502V53.0914C35.5434 53.0448 35.5358 52.9983 35.5189 52.9548C35.5097 52.9395 35.4974 52.9263 35.4826 52.9163C35.4679 52.9062 35.4512 52.8995 35.4336 52.8965V52.5762H36.1293L36.3851 53.6962L36.6297 52.5762H37.341V52.8965C37.3229 52.8987 37.3055 52.9051 37.2903 52.9152C37.2751 52.9253 37.2625 52.9389 37.2535 52.9548C37.2381 53.0017 37.232 53.0511 37.2356 53.1004V53.9964C37.2324 54.0524 37.2392 54.1086 37.2558 54.1622C37.2637 54.1782 37.2758 54.1919 37.2908 54.2017C37.3058 54.2116 37.3231 54.2172 37.341 54.2182V54.5497H36.6925V54.2182C36.7104 54.2171 36.7276 54.2107 36.742 54.2C36.7563 54.1892 36.7672 54.1745 36.7733 54.1577C36.7874 54.1051 36.7935 54.0508 36.7912 53.9964V53.0668L36.4434 54.5497H36.2572L35.9048 53.0421Z" fill="white"/>
<path d="M37.5337 54.5565V54.225C37.5499 54.2206 37.565 54.213 37.5781 54.2026C37.5912 54.1922 37.6021 54.1792 37.61 54.1645C37.6309 54.1182 37.6452 54.0691 37.6526 54.0189L37.9331 52.5852H38.6063L38.9138 54.0502C38.9202 54.0926 38.9339 54.1335 38.9542 54.1712C38.9623 54.1847 38.973 54.1964 38.9857 54.2056C38.9984 54.2149 39.0129 54.2215 39.0282 54.225V54.5565H38.355V54.225C38.3824 54.2246 38.4088 54.2143 38.4291 54.1958C38.4375 54.1874 38.4441 54.1772 38.4484 54.166C38.4526 54.1548 38.4544 54.1428 38.4538 54.1309C38.4557 54.1115 38.4557 54.092 38.4538 54.0726L38.438 53.992H38.0566L38.0386 54.0659C38.0386 54.0906 38.0386 54.1107 38.0386 54.1264C38.0378 54.1394 38.0395 54.1524 38.0438 54.1647C38.048 54.177 38.0546 54.1884 38.0633 54.1981C38.0743 54.2077 38.0871 54.215 38.101 54.2197C38.1148 54.2243 38.1295 54.2261 38.1441 54.225V54.5565H37.5337ZM38.1059 53.712H38.373L38.2383 52.9571L38.1059 53.712Z" fill="white"/>
<path d="M39.7508 54.0211C39.7479 54.0584 39.7479 54.0958 39.7508 54.1331C39.7542 54.1553 39.7635 54.1762 39.7778 54.1936C39.7968 54.2101 39.8202 54.221 39.8451 54.2249V54.5565H39.1876V54.2249C39.2127 54.2202 39.2361 54.2086 39.2549 54.1913C39.2702 54.1752 39.2804 54.155 39.2841 54.1331C39.2841 54.1107 39.2841 54.0726 39.2841 54.0211V53.1094C39.287 53.0588 39.2817 53.0081 39.2684 52.9593C39.2599 52.9436 39.2477 52.9303 39.2328 52.9205C39.2179 52.9108 39.2008 52.9048 39.1831 52.9033V52.5852H39.9595C40.1348 52.5712 40.3094 52.6187 40.4532 52.7196C40.5388 52.8199 40.5922 52.9436 40.6066 53.0746C40.621 53.2056 40.5957 53.3378 40.534 53.4543C40.4808 53.5317 40.4009 53.5867 40.3096 53.6089C40.3845 53.6202 40.4533 53.6565 40.5048 53.7119C40.5473 53.7727 40.5671 53.8464 40.561 53.9203V54.0256C40.5582 54.0746 40.5635 54.1238 40.5767 54.1712C40.5825 54.1855 40.592 54.198 40.6042 54.2074C40.6164 54.2168 40.6309 54.2229 40.6462 54.2249V54.5565H40.1682C40.1503 54.5183 40.1389 54.4774 40.1346 54.4355C40.1318 54.3795 40.1318 54.3235 40.1346 54.2675V54.0144C40.1361 53.9652 40.13 53.9161 40.1166 53.8688C40.1112 53.8521 40.1022 53.8368 40.0902 53.824C40.0781 53.8112 40.0634 53.8013 40.0471 53.7948C39.9998 53.7772 39.9493 53.7696 39.899 53.7724H39.7576L39.7508 54.0211ZM39.7508 53.4252H39.9281C39.9944 53.4307 40.0602 53.4106 40.1121 53.3692C40.1499 53.3175 40.1702 53.2551 40.1702 53.1911C40.1702 53.1271 40.1499 53.0648 40.1121 53.013C40.0885 52.9912 40.0604 52.9747 40.0299 52.9646C39.9993 52.9546 39.9669 52.9512 39.9349 52.9548H39.7508V53.4252Z" fill="white"/>
<path d="M40.9224 53.2476C40.9218 53.154 40.927 53.0605 40.9381 52.9676C40.9447 52.9009 40.9662 52.8366 41.001 52.7794C41.052 52.6949 41.1316 52.6314 41.2254 52.6002C41.3454 52.5607 41.4715 52.5425 41.5979 52.5464C41.8175 52.547 42.0344 52.596 42.2329 52.6898V53.2476H41.8021V53.2095C41.8021 53.0325 41.7347 52.9429 41.5979 52.9429C41.5669 52.9395 41.5355 52.9441 41.5069 52.9563C41.4782 52.9684 41.4531 52.9877 41.4341 53.0124C41.3967 53.0808 41.3804 53.1587 41.3869 53.2364V53.9084C41.3809 53.9861 41.3972 54.0638 41.4341 54.1324C41.4539 54.156 41.4791 54.1745 41.5077 54.1862C41.5362 54.1979 41.5671 54.2025 41.5979 54.1996C41.6282 54.2027 41.6587 54.1979 41.6866 54.1858C41.7145 54.1736 41.7388 54.1545 41.7572 54.1302C41.7936 54.0614 41.8092 53.9836 41.8021 53.9062V53.7628H42.2329V54.4349C42.1375 54.4858 42.0356 54.5235 41.93 54.5469C41.8213 54.5736 41.7098 54.5872 41.5979 54.5872C41.4816 54.5901 41.3657 54.5743 41.2545 54.5401C41.1666 54.5155 41.0884 54.4647 41.0301 54.3945C40.9987 54.3553 40.9751 54.3105 40.9606 54.2624C40.9463 54.211 40.9366 54.1586 40.9314 54.1056C40.9314 54.0518 40.9314 53.9771 40.9314 53.8815L40.9224 53.2476Z" fill="white"/>
<path d="M43.0856 54.0211C43.0824 54.0584 43.0824 54.0959 43.0856 54.1331C43.0872 54.1554 43.0959 54.1766 43.1103 54.1936C43.1299 54.2093 43.153 54.22 43.1776 54.225V54.5565H42.5224V54.225C42.5471 54.2209 42.5698 54.2091 42.5874 54.1914C42.6027 54.1753 42.6129 54.155 42.6166 54.1331C42.6198 54.0959 42.6198 54.0584 42.6166 54.0211V53.1094C42.6192 53.0587 42.6131 53.008 42.5987 52.9593C42.5907 52.9437 42.5789 52.9304 42.5644 52.9206C42.5499 52.9108 42.5331 52.9048 42.5156 52.9033V52.5852H43.1709V52.9033C43.1462 52.9074 43.1234 52.9191 43.1058 52.9369C43.0916 52.9543 43.0823 52.9752 43.0789 52.9974C43.0758 53.0347 43.0758 53.0721 43.0789 53.1094V53.3715H43.5008V53.1094C43.5038 53.0587 43.4977 53.0079 43.4828 52.9593C43.4752 52.9439 43.4638 52.9306 43.4497 52.9208C43.4356 52.911 43.4192 52.905 43.402 52.9033V52.5852H44.0573V52.9033C44.0321 52.908 44.0088 52.9196 43.99 52.9369C43.9765 52.9548 43.9673 52.9755 43.963 52.9974C43.9599 53.0347 43.9599 53.0721 43.963 53.1094V54.0211C43.9598 54.0584 43.9598 54.0959 43.963 54.1331C43.9669 54.1545 43.9762 54.1746 43.99 54.1914C44.0088 54.2086 44.0321 54.2203 44.0573 54.225V54.5565H43.3998V54.225C43.4424 54.225 43.4716 54.1981 43.4806 54.1712C43.495 54.1226 43.5011 54.0718 43.4985 54.0211V53.7053H43.0856V54.0211Z" fill="white"/>
<path d="M45.4758 52.5852H46.0323V54.0211C46.0323 54.0726 46.0323 54.1107 46.0323 54.1331C46.0362 54.1545 46.0454 54.1746 46.0592 54.1914C46.0768 54.2091 46.0996 54.2209 46.1243 54.225V54.5565H45.4713V54.225C45.4961 54.2205 45.5193 54.2097 45.5386 54.1936C45.5549 54.1755 45.5651 54.1528 45.5678 54.1286C45.5704 54.0929 45.5704 54.0569 45.5678 54.0211V53.1094C45.5708 53.0588 45.5655 53.0081 45.5521 52.9593C45.5433 52.9439 45.531 52.9308 45.5162 52.9211C45.5014 52.9113 45.4844 52.9052 45.4668 52.9033L45.4758 52.5852Z" fill="white"/>
<path d="M46.7816 54.0293H47.2034C47.2034 54.157 47.2797 54.2198 47.4144 54.2198C47.4628 54.2224 47.511 54.2116 47.5535 54.1884C47.5861 54.1645 47.6085 54.1294 47.6163 54.0898C47.6295 54.031 47.6356 53.9709 47.6343 53.9106V53.7493C47.5309 53.8143 47.4108 53.8478 47.2887 53.8457C47.2019 53.8475 47.1154 53.8346 47.0329 53.8076C46.9666 53.7835 46.9078 53.7426 46.8623 53.6889C46.8153 53.6323 46.7822 53.5656 46.7658 53.494C46.7457 53.4028 46.7359 53.3096 46.7367 53.2162C46.7341 53.1031 46.7461 52.9902 46.7726 52.8802C46.7976 52.7951 46.8505 52.7209 46.9229 52.6696C47.0722 52.576 47.2476 52.5328 47.4234 52.5464C47.5524 52.5411 47.6812 52.5609 47.8026 52.6046C47.8926 52.6397 47.9679 52.7045 48.0158 52.7883C48.0643 52.8879 48.0875 52.998 48.0831 53.1087V54.0204C48.0846 54.107 48.0717 54.1933 48.045 54.2758C48.0215 54.3448 47.9805 54.4065 47.926 54.455C47.8687 54.5053 47.8002 54.5413 47.7263 54.5603C47.6321 54.5862 47.5345 54.5983 47.4368 54.5961C47.2104 54.5957 46.9868 54.546 46.7816 54.4505V54.0293ZM47.4234 52.9339C47.3937 52.9313 47.3639 52.9356 47.3362 52.9464C47.3086 52.9573 47.2838 52.9745 47.264 52.9967C47.2242 53.056 47.2059 53.1271 47.2124 53.1983C47.2054 53.2762 47.2227 53.3544 47.2618 53.4223C47.2809 53.4464 47.3056 53.4655 47.3337 53.4779C47.3619 53.4904 47.3926 53.4959 47.4234 53.494C47.5647 53.494 47.6343 53.4044 47.6343 53.2229C47.6418 53.1452 47.6254 53.067 47.5872 52.9989C47.5671 52.9757 47.5417 52.9577 47.5132 52.9464C47.4847 52.9351 47.4539 52.9308 47.4234 52.9339Z" fill="white"/>
<path d="M48.3905 54.0293H48.8146C48.8146 54.157 48.8887 54.2197 49.0233 54.2197C49.0717 54.2226 49.12 54.2118 49.1624 54.1884C49.1957 54.1647 49.2189 54.1296 49.2275 54.0898C49.2407 54.031 49.2467 53.9708 49.2455 53.9106V53.7493C49.1412 53.8142 49.0205 53.8476 48.8976 53.8456C48.8108 53.8472 48.7244 53.8344 48.6418 53.8075C48.5759 53.784 48.5177 53.743 48.4735 53.6888C48.4265 53.6323 48.3934 53.5655 48.377 53.4939C48.3557 53.4029 48.3459 53.3096 48.3478 53.2161C48.3441 53.103 48.3562 52.9899 48.3837 52.8801C48.4078 52.7952 48.46 52.721 48.5319 52.6696C48.682 52.5761 48.8581 52.5329 49.0345 52.5464C49.1635 52.5411 49.2923 52.5608 49.4138 52.6046C49.5032 52.6398 49.5777 52.7046 49.6247 52.7883C49.6753 52.8872 49.6993 52.9976 49.6943 53.1086V54.0203C49.6962 54.1072 49.6825 54.1937 49.6539 54.2757C49.6313 54.3446 49.591 54.4063 49.5372 54.4549C49.4799 54.5052 49.4114 54.5413 49.3375 54.5602C49.2432 54.5859 49.1457 54.598 49.048 54.5961C48.8208 54.5955 48.5965 54.5459 48.3905 54.4505V54.0293ZM49.0345 52.9339C49.0046 52.9312 48.9744 52.9355 48.9464 52.9464C48.9184 52.9572 48.8932 52.9744 48.8729 52.9966C48.8341 53.0563 48.8159 53.1272 48.8213 53.1982C48.8149 53.2764 48.8329 53.3547 48.8729 53.4222C48.8918 53.4466 48.9165 53.4659 48.9447 53.4784C48.9729 53.4909 49.0037 53.4963 49.0345 53.4939C49.1737 53.4939 49.2455 53.4043 49.2455 53.2229C49.2525 53.1449 49.2352 53.0667 49.1961 52.9989C49.1766 52.9755 49.1517 52.9574 49.1235 52.9461C49.0953 52.9347 49.0647 52.9306 49.0345 52.9339Z" fill="white"/>
<path d="M51.2968 53.8927C51.2988 53.9969 51.292 54.101 51.2767 54.2041C51.2651 54.2773 51.2341 54.3462 51.1869 54.4034C51.1325 54.4727 51.0581 54.5236 50.9737 54.549C50.7535 54.6101 50.5207 54.6101 50.3005 54.549C50.2126 54.5244 50.1343 54.4736 50.0761 54.4034C50.0444 54.3632 50.0201 54.3177 50.0043 54.269C49.9889 54.218 49.9792 54.1654 49.9751 54.1122C49.9751 54.0585 49.9751 53.9868 49.9751 53.8882V53.2408C49.9751 53.1467 49.9751 53.075 49.9751 53.0168C49.979 52.9643 49.9888 52.9125 50.0043 52.8622C50.0183 52.8133 50.042 52.7676 50.0738 52.7278C50.1321 52.6576 50.2103 52.6068 50.2982 52.5822C50.4088 52.5489 50.524 52.5338 50.6393 52.5374C50.754 52.5338 50.8685 52.5489 50.9782 52.5822C51.0667 52.6054 51.1454 52.6565 51.2026 52.7278C51.2494 52.7862 51.2803 52.8556 51.2924 52.9294C51.3076 53.031 51.3144 53.1336 51.3126 53.2363L51.2968 53.8927ZM50.848 53.9106V53.2386C50.8554 53.1608 50.839 53.0827 50.8009 53.0145C50.78 52.9932 50.7551 52.9763 50.7275 52.9647C50.6999 52.9531 50.6704 52.9471 50.6405 52.9471C50.6106 52.9471 50.581 52.9531 50.5534 52.9647C50.5259 52.9763 50.5009 52.9932 50.48 53.0145C50.4426 53.083 50.4262 53.1609 50.4329 53.2386V53.9106C50.4261 53.9883 50.4425 54.0662 50.48 54.1346C50.4983 54.1591 50.5225 54.1786 50.5503 54.1911C50.5782 54.2037 50.6089 54.2089 50.6393 54.2063C50.6699 54.2091 50.7008 54.2042 50.729 54.1921C50.7572 54.18 50.7819 54.161 50.8009 54.1369C50.8351 54.0666 50.8483 53.9881 50.8391 53.9106H50.848Z" fill="white"/>
<path fill-rule="evenodd" clip-rule="evenodd" d="M68.8005 33.0485C68.8207 31.8366 68.0039 29.0319 68.4617 28.4338C69.4468 29.023 69.2403 31.122 69.7026 33.1762C70.4117 32.0561 71.646 29.7309 73.6275 30.04C73.6293 31.1409 73.2474 32.2081 72.5473 33.0586C71.8471 33.9091 70.8724 34.49 69.7901 34.7017C69.6981 35.6336 69.5478 36.8029 69.7587 37.5153C69.806 37.4825 69.851 37.4466 69.8934 37.4077L71.5989 35.9763C72.4112 35.4499 73.0104 35.2662 74.0112 35.4163C73.7397 38.026 71.5764 39.3208 69.4154 39.4014L68.8185 42.5869C69.7924 41.5587 71.4867 40.2572 73.5714 40.8262C73.2774 42.1702 72.3259 42.9408 71.5091 43.4C71.0397 43.6568 70.5344 43.8418 70.0101 43.9489L68.7736 44.0878C67.9119 44.1863 67.5371 46.0255 67.297 46.9215C68.2103 46.3884 70.4521 45.0062 72.0679 46.1083C72.1733 47.0425 70.8112 47.8265 70.019 48.1558C68.8387 48.6464 68.0196 48.7248 66.4285 48.3149C66.0403 49.3856 65.4524 50.0778 64.9564 51.003C66.267 50.658 68.6165 49.6589 70.0213 51.1016C69.5949 51.9618 68.4706 52.468 67.4429 52.71C65.7957 53.0953 65.2908 52.5935 63.895 52.3515C63.4462 53.0617 62.9413 53.9644 62.0998 54.2086C62.0728 54.1504 61.4265 54.0585 62.5127 52.8645C63.0153 52.3112 63.0063 52.4658 63.2936 51.7445C62.4768 50.7543 62.1401 50.5684 61.9225 49.1079C61.7474 47.9273 61.9472 46.6437 62.5351 45.7925C64.0139 46.2674 64.3483 48.5322 64.2204 50.4004C64.9081 49.7317 65.4226 48.906 65.7194 47.9945C63.9937 46.3144 63.1477 45.3489 63.8703 42.1993C66.2782 42.8087 66.1548 45.9695 66.4667 46.7961L67.5461 43.9063C66.8459 43.2343 66.2445 43.3463 65.2773 41.6998C64.9697 41.2088 64.7679 40.6593 64.6849 40.0861C64.6018 39.513 64.6393 38.9289 64.7949 38.371C66.6731 38.8459 67.7929 40.8508 67.9927 42.5645L68.6187 39.2962C66.2288 38.707 64.4987 36.4669 64.952 34.5068C67.656 34.8226 67.7615 36.664 68.8476 37.7617L68.9643 34.8361C66.4734 34.518 64.2742 32.6609 64.5054 30.6068C65.6566 30.656 66.1323 30.8308 67.0389 31.4468C68.0039 32.0964 67.9366 32.4347 68.796 33.053L68.8005 33.0485Z" fill="white"/>
<path fill-rule="evenodd" clip-rule="evenodd" d="M5.97592 28.3485C6.15545 27.15 7.42334 24.5157 7.06878 23.8503C6.00061 24.2692 5.85923 26.3794 5.06483 28.3306C4.55095 27.1097 3.7184 24.612 1.70997 24.5985C1.52852 25.6847 1.73137 26.8001 2.28373 27.7532C2.83609 28.7064 3.70352 29.438 4.7372 29.8225C4.67437 30.7566 4.63173 31.9349 4.30634 32.6025C4.2648 32.5624 4.22583 32.5197 4.18965 32.4748L2.74224 30.7813C2.01965 30.1249 1.46761 29.8449 0.448811 29.8292C0.287239 32.4479 2.20591 34.0854 4.3243 34.5133L4.38713 37.7547C3.6062 36.5809 2.14981 35.0173 0 35.2368C0.0695657 36.6123 0.87967 37.5285 1.61123 38.1131C2.03097 38.4444 2.49855 38.7102 2.99806 38.9017L4.19414 39.2422C5.02893 39.4819 5.09176 41.3568 5.18377 42.2798C4.37367 41.6077 2.38768 39.8739 0.612627 40.696C0.354561 41.592 1.5686 42.5956 2.29791 43.0504C3.37955 43.7224 4.17394 43.9464 5.80313 43.7963C6.00958 44.9164 6.47635 45.6937 6.81295 46.6861C5.57648 46.1305 3.42443 44.7573 1.80198 45.9513C2.078 46.872 3.10353 47.5552 4.07969 47.9674C5.65053 48.6193 6.22277 48.2071 7.63877 48.1914C7.95518 48.9643 8.31198 49.9409 9.09516 50.3173C9.13106 50.2635 9.76838 50.2792 8.90666 48.9284C8.50048 48.3012 8.48702 48.4535 8.32096 47.6964C9.29039 46.8518 9.65393 46.7241 10.1162 45.3196C10.482 44.1839 10.4977 42.8846 10.0579 41.9594C8.51844 42.1834 7.8138 44.3631 7.63428 46.2268C7.0671 45.454 6.69597 44.5555 6.55264 43.6081C8.53415 42.2327 9.52602 41.4196 9.33079 38.1938C6.86232 38.3999 6.45615 41.5383 6.01407 42.3022L5.43062 39.269C6.23174 38.7157 6.80622 38.9308 8.03148 37.4635C8.41589 37.0299 8.70561 36.5212 8.88218 35.9696C9.05875 35.4181 9.11829 34.8359 9.05701 34.2602C7.12488 34.4214 5.69093 36.2135 5.2107 37.8735L5.13216 34.5469C7.58491 34.3565 9.66066 32.43 9.535 30.4228C6.81744 30.2907 6.41127 32.0895 5.15684 32.9945L5.52487 30.0823C8.03372 30.1764 10.5089 28.7069 10.6211 26.6438C9.47441 26.5004 8.97847 26.599 7.98211 27.0537C6.92291 27.5376 6.94311 27.8848 5.98265 28.353L5.97592 28.3485Z" fill="white"/>
<path fill-rule="evenodd" clip-rule="evenodd" d="M13.2109 15.5687L35.5639 7.63867L61.025 16.1511C61.4356 30.3669 56.8645 41.8049 50.9963 49.8088H22.9568C16.357 41.0321 12.8204 29.1998 13.2109 15.5754V15.5687ZM33.5061 42.6225H34.2444V43.3954H33.5084V42.6203L33.5061 42.6225ZM31.547 42.6225H32.2876V43.3954H31.5515V42.6203L31.547 42.6225ZM29.5521 42.6225H30.2949V43.3909L29.5588 43.3797L29.5521 42.6225ZM45.1415 43.3931C45.4355 43.3931 45.8776 43.3394 46.111 43.4245C46.2703 43.924 46.2703 44.222 46.5441 44.67C46.7424 45.0069 46.9939 45.3095 47.2891 45.5661C46.5575 45.631 42.6776 45.5661 41.5937 45.5661H30.1064C29.0068 45.5661 28.1406 45.4921 27.4584 44.67C27.0846 44.2128 26.8731 43.6448 26.857 43.0549C26.8504 42.6804 26.9276 42.3091 27.0829 41.9681C27.2381 41.6271 27.4676 41.3249 27.7546 41.0836C28.3515 40.5527 29.0427 40.481 29.9986 40.4765H47.2779C47.1769 40.6602 47.0288 40.7274 46.856 40.9245C46.5905 41.2459 46.3853 41.6124 46.2501 42.0065C45.9965 42.7906 46.4094 42.6539 45.1483 42.6539C45.1874 42.2387 45.2864 41.8312 45.4422 41.4442C45.0181 41.395 36.4099 41.4286 35.813 41.4442C34.204 41.4442 32.5928 41.4308 30.9838 41.4442C30.3263 41.4442 29.2985 41.3502 28.7397 41.5786C28.466 41.7046 28.2343 41.9065 28.0723 42.1604C27.9104 42.4142 27.825 42.7092 27.8264 43.0101C27.8367 43.319 27.9317 43.6191 28.101 43.8778C28.2704 44.1365 28.5076 44.3439 28.7869 44.4774C29.2806 44.6879 30.4475 44.614 31.0556 44.6095C32.6489 44.6095 34.2466 44.6252 35.8377 44.6095C36.5333 44.6095 45.0383 44.6543 45.4198 44.5938L45.1528 43.3909L45.1415 43.3931ZM31.0421 39.744C30.3689 39.7955 29.6329 39.6947 28.9821 39.7821C28.0373 39.912 27.7546 40.3018 27.4359 40.369C27.2823 40.5516 27.1167 40.7237 26.94 40.8842C26.6375 41.2274 26.4107 41.6302 26.2743 42.0665C26.1379 42.5029 26.095 42.963 26.1483 43.417C26.2017 43.871 26.35 44.3087 26.5839 44.7017C26.8177 45.0947 27.1317 45.4342 27.5055 45.6982C28.4951 46.4151 29.5543 46.3053 30.9501 46.3008C32.1911 46.3008 33.7283 46.2336 34.9086 46.3187C35.2183 46.2426 40.815 46.2806 40.9362 46.3344C42.2018 46.2157 49.3334 46.4151 49.6095 46.2336C49.6602 46.1945 49.7002 46.1431 49.7255 46.0843C49.7508 46.0254 49.7607 45.9611 49.7542 45.8974C49.7477 45.8337 49.725 45.7728 49.6883 45.7203C49.6516 45.6678 49.602 45.6255 49.5444 45.5974C49.3649 45.5302 48.9587 45.5459 48.6939 45.4675C47.2824 45.0531 46.5508 43.5186 46.8986 42.5777C46.8538 41.8811 47.7155 40.9805 48.1508 40.8148L48.2742 40.7408L48.3057 40.7229C48.3566 40.6961 48.4091 40.6721 48.4627 40.6512C49.0148 40.4272 49.4367 40.5392 49.6207 40.4026C49.6665 40.3619 49.702 40.311 49.7242 40.2539C49.7464 40.1969 49.7546 40.1354 49.7482 40.0745C49.7419 40.0137 49.7211 39.9552 49.6876 39.9039C49.6541 39.8527 49.6088 39.8102 49.5556 39.7798C49.3783 39.6947 49.0642 39.7642 48.9026 39.7373C48.5435 39.6746 49.1831 39.8202 48.8195 39.7126C48.8195 39.7126 48.7904 39.7126 48.7836 39.6947C48.7769 39.6768 48.7567 39.6947 48.7455 39.6746C48.64 39.7642 48.7567 39.7126 48.575 39.7373H44.7803L31.0421 39.744ZM37.7003 34.0362C38.0728 33.6957 38.3196 33.4 38.7033 33.0124L39.601 31.9193C39.8029 31.6437 39.978 31.7109 40.3752 31.6505L42.7786 31.1352C43.0995 32.6921 43.003 34.9994 41.6835 35.5102C40.337 36.0344 38.3465 34.6455 37.707 34.0362H37.7003ZM31.2149 32.3046L31.3226 31.1308C31.4842 31.1442 33.0506 31.5407 33.744 31.6505C34.48 31.7647 34.2444 31.5721 34.949 32.4771L36.4077 34.0451C35.7933 34.6055 35.0835 35.0516 34.3117 35.3623C33.2413 35.788 32.5165 35.7857 31.8051 35.0241C31.9577 34.8001 32.1507 34.753 32.3123 34.408C32.4437 34.1103 32.4782 33.7789 32.411 33.4605C32.2158 32.5779 31.4416 32.4547 31.2149 32.3135V32.3046ZM37.0495 33.4717C36.4983 32.9795 35.9949 32.4365 35.546 31.8498C36.5984 31.8767 37.496 31.879 38.5507 31.8498C38.3959 32.1321 37.2873 33.3574 37.0652 33.4717H37.0495ZM40.429 30.7835C40.5471 30.5574 40.6806 30.3396 40.8285 30.1317L41.9617 28.1671C42.1323 28.8234 42.4823 29.5313 42.5878 30.2661C42.2467 30.4789 40.9496 30.7365 40.4447 30.788L40.429 30.7835ZM31.5089 30.2661C31.6144 29.5313 31.9577 28.8257 32.135 28.1671C32.1619 28.1974 32.1866 28.2296 32.209 28.2634L32.2315 28.297L33.6677 30.7835C33.183 30.7343 31.8769 30.4811 31.5246 30.2705L31.5089 30.2661ZM43.4361 30.0174C43.3194 29.8315 43.077 28.8078 42.9715 28.5053C42.2983 26.5878 42.314 27.6093 42.9872 25.6626C43.0748 25.414 43.3463 24.3342 43.4361 24.1976C44.199 24.3925 45.2695 25.0712 45.7609 25.461C45.9234 25.611 46.0777 25.7695 46.2232 25.9359C46.9615 26.8678 46.6518 27.336 46.4723 27.952C46.0885 27.8378 45.4176 27.504 44.7443 28.0461C44.1945 28.4941 44.1788 28.8794 44.2394 29.7038L43.4361 30.0174ZM36.0105 23.1627C37.0303 23.1163 38.0522 23.138 39.0691 23.2276C39.417 23.2747 39.4618 23.4852 39.6189 23.7205C40.1851 24.5662 40.6999 25.4452 41.1606 26.3526C41.5959 27.2083 41.5937 26.9821 41.183 27.8243C40.7338 28.7384 40.2201 29.6195 39.6458 30.461C39.4977 30.685 39.408 30.9314 39.1207 30.9829C38.5081 31.0904 36.6366 31.077 36.0195 31.0523C35.4023 31.0277 34.9311 31.0837 34.7179 30.7992C34.0546 29.8683 33.4678 28.8854 32.963 27.8602C32.5344 26.9776 32.5142 27.2598 32.963 26.3884C33.4017 25.4689 33.9119 24.5851 34.489 23.7451C34.9266 23.1223 34.7291 23.2366 36.0105 23.1604V23.1627ZM30.6921 30.0174C29.9687 29.7674 29.2842 29.4167 28.6589 28.9758C26.9602 27.7303 27.0881 26.4713 28.6589 25.2393C29.2749 24.7911 29.9561 24.4398 30.6786 24.1976C30.7616 24.3253 31.0489 25.4476 31.1274 25.703C31.8141 27.6384 31.7782 26.599 31.1274 28.5434C31.0511 28.8078 30.7953 29.8404 30.6921 30.0174ZM41.854 25.8642C41.5062 25.2953 40.916 23.9848 40.438 23.4315C41.1741 23.5161 41.8987 23.6806 42.599 23.9221C42.5339 24.6187 42.1233 25.3983 41.9864 26.0323L41.854 25.8642ZM31.5313 23.9221C32.2324 23.6804 32.9578 23.5159 33.6946 23.4315C33.2043 24.1565 32.7598 24.9114 32.3639 25.6918L32.1395 26.03C31.9959 25.4028 31.5874 24.6098 31.5246 23.9221H31.5313ZM35.5572 22.354C35.6671 22.1053 36.8632 20.8486 37.0674 20.7366C37.2671 20.8486 38.4655 22.1076 38.5754 22.354C38.075 22.354 37.5701 22.3114 37.0674 22.3114C36.5648 22.3114 36.0554 22.3428 35.5549 22.3405L35.5572 22.354ZM38.553 19.5068C41.661 17.4325 43.4405 18.8504 42.7875 23.0529C42.4689 23.0372 41.6049 22.7662 41.1673 22.681C40.4178 22.5354 39.8209 22.5802 39.5965 22.2666C38.829 21.225 37.9471 20.4611 37.7182 20.1564L38.5507 19.5068H38.553ZM31.3406 23.0551C31.0848 21.4154 31.096 19.1685 32.4626 18.6847C32.6354 18.9087 32.6713 19.1529 32.889 19.3567C33.0346 19.5027 33.2098 19.6158 33.4029 19.6885C33.596 19.7611 33.8025 19.7915 34.0083 19.7777C34.2142 19.7639 34.4147 19.7062 34.5964 19.6085C34.778 19.5107 34.9365 19.3752 35.0612 19.2111C35.5511 19.4589 36.0042 19.7733 36.4077 20.1452C36.2411 20.3339 36.0651 20.5141 35.8803 20.6851C35.7322 20.8486 35.537 21.0211 35.3979 21.1936C34.2758 22.5668 34.599 22.41 33.7597 22.5377C33.0483 22.6407 31.5156 23.0395 31.3406 23.0507V23.0551ZM35.3799 18.4495C35.353 16.6574 33.3311 16.4132 32.6646 17.5937C32.4245 18.0194 32.2382 17.7237 31.6346 18.1829C30.0323 19.4038 30.3801 21.7312 30.535 23.3553C29.6755 23.5793 28.6253 24.2222 28.0127 24.6815C26.1389 26.0838 26.1434 28.1223 28.0351 29.5313C28.5782 29.9345 29.7406 30.6312 30.526 30.8351L30.3734 32.4614C29.5521 32.7907 29.22 34.0048 29.9246 34.7866C30.4228 35.3354 30.7841 35.0308 31.0646 35.4183C31.2963 35.7792 31.6297 36.0636 32.0228 36.236C32.9518 36.6616 34.121 36.3816 34.9401 35.9784C35.332 35.7912 35.7113 35.5786 36.0756 35.3422L37.0562 34.6231C38.3421 35.6692 40.5278 37.02 42.1592 36.1912C44.0689 35.2324 43.7704 32.5017 43.5752 30.8261C44.6591 30.564 44.3718 30.1966 45.0181 30.499C45.2678 30.6156 45.5454 30.6591 45.8188 30.6246C46.0923 30.5901 46.3503 30.4789 46.5631 30.3041C46.7758 30.1292 46.9346 29.8977 47.021 29.6365C47.1074 29.3752 47.1179 29.0949 47.0512 28.8279C46.9211 28.3015 47.3362 28.4135 47.4888 27.4368C47.6616 26.3167 46.9704 25.3804 46.1918 24.7487C45.6846 24.3298 44.3673 23.5592 43.5797 23.3553C43.6986 22.1277 43.8692 21.2944 43.5797 20.0467C43.0389 17.6408 41.2279 17.3585 39.206 18.1919C38.8138 18.3687 38.437 18.5778 38.0795 18.8168C37.7047 19.061 37.3861 19.3545 37.0652 19.5583C36.5917 19.2559 36.0015 18.6847 35.3844 18.4383L35.3799 18.4495ZM45.1864 56.3074C42.4734 58.7894 39.7334 60.5995 37.2582 61.6837C34.31 60.2416 31.5552 58.4354 29.0584 56.3074H45.1864Z" fill="white"/>
<path fill-rule="evenodd" clip-rule="evenodd" d="M31.5491 42.8735V43.3976L31.9351 43.3954H32.2852V43.1535L32.2874 42.6226H31.5469L31.5491 42.8735Z" fill="white"/>
<path fill-rule="evenodd" clip-rule="evenodd" d="M33.5059 43.3976L33.8111 43.3954H34.2419V42.9675L34.2442 42.6226H33.5059V43.3976Z" fill="white"/>
<path fill-rule="evenodd" clip-rule="evenodd" d="M29.554 43.3842L30.2901 43.3954L30.2923 42.627L29.5518 42.6248L29.554 43.3842Z" fill="white"/>
<path d="M45.7922 42.6584H35.4785V43.3887H45.7922V42.6584Z" fill="white"/>
</g>
<defs>
<clipPath id="clip0">
<rect width="74" height="69" fill="white"/>
</clipPath>
</defs>
</svg>
