<svg width="23" height="23" viewBox="0 0 23 23" fill="none" xmlns="http://www.w3.org/2000/svg">
<path d="M11.2507 5.90034C8.1077 5.90034 5.57254 8.43607 5.57254 11.5798C5.57254 14.7235 8.1077 17.2592 11.2507 17.2592C14.3937 17.2592 16.9288 14.7235 16.9288 11.5798C16.9288 8.43607 14.3937 5.90034 11.2507 5.90034ZM11.2507 15.2721C9.21961 15.2721 7.55915 13.6163 7.55915 11.5798C7.55915 9.54328 9.21466 7.8874 11.2507 7.8874C13.2867 7.8874 14.9422 9.54328 14.9422 11.5798C14.9422 13.6163 13.2818 15.2721 11.2507 15.2721ZM18.4855 5.66803C18.4855 6.40452 17.8925 6.99273 17.1611 6.99273C16.4248 6.99273 15.8367 6.39958 15.8367 5.66803C15.8367 4.93647 16.4297 4.34332 17.1611 4.34332C17.8925 4.34332 18.4855 4.93647 18.4855 5.66803ZM22.2463 7.0125C22.1622 5.23799 21.757 3.66614 20.4573 2.3711C19.1626 1.07605 17.5911 0.67073 15.8169 0.581757C13.9885 0.477956 8.50798 0.477956 6.67951 0.581757C4.91034 0.665787 3.33884 1.07111 2.03914 2.36615C0.739438 3.6612 0.33915 5.23305 0.250197 7.00756C0.146419 8.83644 0.146419 14.3181 0.250197 16.147C0.334208 17.9215 0.739438 19.4934 2.03914 20.7884C3.33884 22.0835 4.90539 22.4888 6.67951 22.5778C8.50798 22.6816 13.9885 22.6816 15.8169 22.5778C17.5911 22.4937 19.1626 22.0884 20.4573 20.7884C21.7521 19.4934 22.1573 17.9215 22.2463 16.147C22.35 14.3181 22.35 8.84139 22.2463 7.0125ZM19.8841 18.1094C19.4986 19.0782 18.7524 19.8246 17.7788 20.2151C16.321 20.7934 12.8617 20.6599 11.2507 20.6599C9.63966 20.6599 6.17544 20.7884 4.72255 20.2151C3.75395 19.8295 3.00773 19.0831 2.61733 18.1094C2.03914 16.6512 2.17257 13.1912 2.17257 11.5798C2.17257 9.96837 2.04408 6.50338 2.61733 5.05016C3.00279 4.08135 3.74901 3.33497 4.72255 2.94448C6.18038 2.36615 9.63966 2.49961 11.2507 2.49961C12.8617 2.49961 16.3259 2.3711 17.7788 2.94448C18.7474 3.33002 19.4937 4.07641 19.8841 5.05016C20.4623 6.50832 20.3288 9.96837 20.3288 11.5798C20.3288 13.1912 20.4623 16.6561 19.8841 18.1094Z" fill="#A3ABB6"/>
</svg>
