<svg width="25" height="24" viewBox="0 0 25 24" fill="none" xmlns="http://www.w3.org/2000/svg">
<path d="M22.8017 0H2.08302C1.13366 0 0.362305 0.749554 0.362305 1.6697V21.4889C0.362305 22.4091 1.13366 23.1586 2.08302 23.1586H22.8017C23.7511 23.1586 24.5278 22.4091 24.5278 21.4889V1.6697C24.5278 0.749554 23.7511 0 22.8017 0ZM7.6659 19.8502H4.08423V8.79821H7.67129V19.8502H7.6659ZM5.87506 7.28876C4.72612 7.28876 3.79834 6.39447 3.79834 5.29857C3.79834 4.20267 4.72612 3.30837 5.87506 3.30837C7.01861 3.30837 7.95179 4.20267 7.95179 5.29857C7.95179 6.39964 7.024 7.28876 5.87506 7.28876ZM21.0918 19.8502H17.5101V14.4741C17.5101 13.1921 17.4831 11.5431 15.6491 11.5431C13.7828 11.5431 13.4969 12.9388 13.4969 14.3811V19.8502H9.91524V8.79821H13.3513V10.3077H13.3998C13.8799 9.4392 15.0504 8.52423 16.7927 8.52423C20.4175 8.52423 21.0918 10.8142 21.0918 13.7918V19.8502Z" fill="#A3ABB6"/>
</svg>
