<svg width="23" height="21" viewBox="0 0 23 21" fill="none" xmlns="http://www.w3.org/2000/svg">
<path d="M20.3918 5.65795C20.4058 5.87261 20.4058 6.08731 20.4058 6.30197C20.4058 12.8493 15.8378 20.3934 7.4887 20.3934C4.9165 20.3934 2.52706 19.5807 0.51709 18.1701C0.88255 18.216 1.23391 18.2314 1.61343 18.2314C3.7358 18.2314 5.68956 17.4494 7.24974 16.1154C5.25384 16.0694 3.58121 14.6434 3.00492 12.6807C3.28606 12.7266 3.56715 12.7573 3.86235 12.7573C4.26995 12.7573 4.67759 12.696 5.05707 12.5887C2.97684 12.1286 1.41661 10.1353 1.41661 7.72797V7.66666C2.02098 8.03466 2.72383 8.26466 3.46872 8.29529C2.24588 7.40594 1.44474 5.88794 1.44474 4.17059C1.44474 3.2506 1.66959 2.40726 2.06317 1.67125C4.29803 4.6766 7.65734 6.63925 11.4242 6.85395C11.354 6.48595 11.3118 6.10265 11.3118 5.71931C11.3118 2.98992 13.3358 0.766602 15.8517 0.766602C17.1589 0.766602 18.3396 1.3646 19.1689 2.33061C20.1949 2.11595 21.1788 1.70193 22.0503 1.13461C21.7129 2.28464 20.9961 3.25065 20.0544 3.86394C20.968 3.75666 21.8535 3.4806 22.6687 3.0973C22.0504 4.0786 21.2773 4.95257 20.3918 5.65795Z" fill="#1C6335"/>
</svg>
