<svg width="32" height="24" viewBox="0 0 32 24" fill="none" xmlns="http://www.w3.org/2000/svg">
<path d="M31.101 4.04867C30.7391 2.65337 29.6729 1.55448 28.3191 1.18156C25.8653 0.503906 16.0257 0.503906 16.0257 0.503906C16.0257 0.503906 6.18623 0.503906 3.73235 1.18156C2.37857 1.55454 1.31235 2.65337 0.950471 4.04867C0.292969 6.57773 0.292969 11.8544 0.292969 11.8544C0.292969 11.8544 0.292969 17.131 0.950471 19.6601C1.31235 21.0554 2.37857 22.1085 3.73235 22.4814C6.18623 23.1591 16.0257 23.1591 16.0257 23.1591C16.0257 23.1591 25.8652 23.1591 28.3191 22.4814C29.6729 22.1085 30.7391 21.0554 31.101 19.6601C31.7585 17.131 31.7585 11.8544 31.7585 11.8544C31.7585 11.8544 31.7585 6.57773 31.101 4.04867ZM12.8076 16.6452V7.06358L21.0315 11.8545L12.8076 16.6452Z" fill="#A3ABB6"/>
</svg>
