<svg width="1920" height="567" viewBox="0 0 1920 567" fill="none" xmlns="http://www.w3.org/2000/svg">
<mask id="mask0" style="mask-type:alpha" maskUnits="userSpaceOnUse" x="0" y="0" width="1920" height="567">
<rect width="1920" height="567" fill="#FFFFFF"/>
</mask>
<g mask="url(#mask0)">
<path d="M1803.75 -7.01329C1994.55 70.9142 1844.92 152.097 1746.25 182.948C1558.43 238.312 1573.76 166.689 1379.13 179.148C1184.5 191.607 1322.28 131.905 1292.53 77.5941C1262.77 23.2833 1075.42 108.621 1025.67 8.11188C975.917 -92.3974 1306.46 -193.496 1311.84 -47.6911C1317.22 98.1138 1565.25 -104.423 1803.75 -7.01329Z" stroke="#0C0E18" stroke-width="3"/>
<path d="M1724.07 2.0911C1870.97 62.1476 1755.9 124.629 1680.01 148.363C1535.53 190.952 1547.25 135.8 1397.5 145.348C1247.74 154.895 1353.7 108.953 1330.75 67.122C1307.8 25.2911 1163.71 90.9628 1125.33 13.5507C1086.94 -63.8615 1341.2 -141.636 1345.49 -29.3529C1349.77 82.9298 1540.43 -72.9795 1724.07 2.0911Z" stroke="#0C0E18" stroke-width="3"/>
<path d="M1877.66 -15.347C2109.36 79.344 1927.79 177.907 1808.04 215.352C1580.09 282.548 1598.62 195.563 1362.37 210.648C1126.11 225.733 1293.31 153.256 1257.13 87.2873C1220.95 21.3183 993.6 124.918 933.102 2.83497C872.604 -119.248 1273.77 -241.955 1280.45 -64.87C1287.12 112.215 1588.03 -133.711 1877.66 -15.347Z" stroke="#0C0E18" stroke-width="3"/>
<path d="M1939.59 -22.4638C2205.34 86.0458 1996.85 199.131 1859.39 242.11C1597.72 319.24 1619.11 219.486 1347.99 236.861C1076.86 254.237 1268.82 171.071 1227.4 95.4339C1185.98 19.7967 924.949 138.673 855.697 -1.30442C786.446 -141.281 1246.95 -282.125 1254.37 -79.058C1261.78 124.01 1607.41 -158.101 1939.59 -22.4638Z" stroke="#0C0E18" stroke-width="3"/>
<path d="M2028.35 -32.3989C2343.36 96.3727 2096.61 230.356 1933.85 281.251C1624.03 372.582 1649.18 254.319 1328.04 274.799C1006.9 295.278 1234.13 196.76 1184.92 107.064C1135.71 17.3675 826.723 158.193 744.422 -7.7991C662.121 -173.791 1207.36 -340.573 1216.54 -99.8067C1225.71 140.959 1634.59 -193.363 2028.35 -32.3989Z" stroke="#0C0E18" stroke-width="3"/>
<path d="M2131.97 -43.9349C2504.6 108.597 2213.24 266.997 2020.98 327.13C1654.97 435.03 1684.44 295.113 1304.9 319.174C925.365 343.234 1193.73 226.787 1135.36 120.631C1076.99 14.4747 712.091 180.937 614.438 -15.5109C516.786 -211.959 1160.88 -409.008 1172.26 -124.125C1183.65 160.758 1666.19 -234.6 2131.97 -43.9349Z" stroke="#0C0E18" stroke-width="3"/>
<path d="M582.182 450.693C696.592 558.331 494.221 605.248 378.734 615.252C161.558 631.192 232.404 567.957 42.9119 543.024C-146.58 518.092 27.8433 488.781 43.373 433.085C58.9027 377.389 -181.566 421.081 -147.919 319.004C-114.272 216.927 270.832 185.493 160.375 321.069C49.9179 456.645 439.17 316.145 582.182 450.693Z" stroke="#0C0E18" stroke-width="3"/>
<path d="M501.427 444.179C589.471 527.106 433.811 563.234 344.976 570.932C177.918 583.195 232.396 534.487 86.6218 515.266C-59.1526 496.046 75.0134 473.479 86.9423 430.575C98.8712 387.671 -86.0962 421.311 -60.245 342.679C-34.3938 264.046 261.838 239.859 176.911 344.292C91.9843 448.725 391.373 340.519 501.427 444.179Z" stroke="#0C0E18" stroke-width="3"/>
<path d="M656.986 456.835C795.878 587.602 550.276 644.582 410.114 656.726C146.532 676.073 232.498 599.261 2.50502 568.959C-227.488 538.657 -15.8006 503.063 3.03045 435.406C21.8614 367.748 -269.981 420.807 -229.176 296.807C-188.37 172.807 279.019 134.649 145 299.338C10.9814 464.027 483.371 293.377 656.986 456.835Z" stroke="#0C0E18" stroke-width="3"/>
<path d="M719.784 461.86C879.157 611.753 597.217 677.097 436.325 691.033C133.762 713.239 232.471 625.175 -31.5159 590.461C-295.503 555.746 -52.5004 514.922 -30.8565 437.359C-9.21263 359.796 -344.229 420.651 -297.338 278.497C-250.447 136.343 286.066 92.5536 132.162 281.361C-21.742 470.169 520.567 274.494 719.784 461.86Z" stroke="#0C0E18" stroke-width="3"/>
<path d="M809.57 469.306C998.368 647.121 664.564 724.589 474.062 741.097C115.814 767.395 232.643 662.953 -79.9605 621.741C-392.564 580.529 -104.852 532.139 -79.2682 440.142C-53.6849 348.146 -450.339 420.281 -394.898 251.674C-339.457 83.0675 295.796 31.2008 113.67 255.131C-68.457 479.06 573.572 247.038 809.57 469.306Z" stroke="#0C0E18" stroke-width="3"/>
<path d="M914.337 478.055C1137.5 688.584 743.203 780.239 518.156 799.75C94.9436 830.823 232.893 707.203 -136.443 658.365C-505.778 609.527 -165.91 552.289 -135.749 443.386C-105.588 334.484 -574.142 419.814 -508.76 220.225C-443.378 20.6351 307.069 -40.6625 92.0596 224.399C-122.95 489.46 635.379 214.893 914.337 478.055Z" stroke="#0C0E18" stroke-width="3"/>
</g>
</svg>
