<svg width="53" height="53" viewBox="0 0 53 53" fill="none" xmlns="http://www.w3.org/2000/svg">
<circle cx="26.5958" cy="26.9099" r="24.464" stroke="#458A5D" stroke-width="3"/>
<path d="M32.219 33.3874H20.0364V30.9704L25.7859 24.8425C26.5753 23.9798 27.1572 23.2271 27.5315 22.5842C27.914 21.9413 28.1053 21.3309 28.1053 20.7531C28.1053 19.9637 27.9059 19.3452 27.5071 18.8976C27.1084 18.4419 26.5387 18.2141 25.7981 18.2141C25.0006 18.2141 24.3699 18.4907 23.906 19.0441C23.4503 19.5894 23.2224 20.3096 23.2224 21.2048H19.6824C19.6824 20.1224 19.9388 19.1336 20.4514 18.2385C20.9723 17.3433 21.7047 16.6434 22.6487 16.1389C23.5927 15.6262 24.6629 15.3698 25.8592 15.3698C27.6902 15.3698 29.1103 15.8093 30.1194 16.6882C31.1367 17.5671 31.6453 18.8081 31.6453 20.4113C31.6453 21.2902 31.4174 22.1854 30.9617 23.0969C30.506 24.0083 29.7247 25.0703 28.618 26.2829L24.5774 30.5432H32.219V33.3874Z" fill="#458A5D"/>
</svg>
