<svg width="53" height="53" viewBox="0 0 53 53" fill="none" xmlns="http://www.w3.org/2000/svg">
<circle cx="26.5958" cy="26.4234" r="24.464" stroke="#458A5D" stroke-width="3"/>
<path d="M23.6253 22.4517H25.5052C26.4003 22.4517 27.0636 22.2279 27.4949 21.7803C27.9262 21.3327 28.1419 20.7386 28.1419 19.9981C28.1419 19.2819 27.9262 18.7245 27.4949 18.3257C27.0717 17.927 26.4858 17.7276 25.7371 17.7276C25.0616 17.7276 24.496 17.9147 24.0403 18.2891C23.5846 18.6553 23.3567 19.1354 23.3567 19.7295H19.8289C19.8289 18.8018 20.0771 17.9717 20.5735 17.2393C21.0781 16.4987 21.7779 15.9209 22.6731 15.5059C23.5764 15.0909 24.5693 14.8833 25.6516 14.8833C27.5315 14.8833 29.0045 15.335 30.0706 16.2383C31.1367 17.1335 31.6697 18.3705 31.6697 19.9492C31.6697 20.7631 31.4215 21.5117 30.9251 22.1953C30.4287 22.8789 29.7776 23.4038 28.972 23.7701C29.9729 24.1281 30.7176 24.6652 31.2058 25.3814C31.7023 26.0975 31.9505 26.9439 31.9505 27.9204C31.9505 29.4992 31.3727 30.7647 30.2171 31.7168C29.0696 32.669 27.5478 33.1451 25.6516 33.1451C23.8776 33.1451 22.4249 32.6771 21.2937 31.7412C20.1707 30.8054 19.6092 29.5684 19.6092 28.0303H23.137C23.137 28.6976 23.3852 29.2429 23.8816 29.666C24.3862 30.0892 25.0047 30.3008 25.7371 30.3008C26.5753 30.3008 27.2304 30.0811 27.7024 29.6416C28.1826 29.194 28.4226 28.604 28.4226 27.8716C28.4226 26.0975 27.4461 25.2105 25.493 25.2105H23.6253V22.4517Z" fill="#458A5D"/>
</svg>
