<svg width="79" height="78" viewBox="0 0 79 78" fill="none" xmlns="http://www.w3.org/2000/svg">
<path d="M66.147 48.75H63.7095V31.6875C63.7108 27.1498 62.3051 22.7234 59.6858 19.018C57.0665 15.3126 53.3626 12.5106 49.0845 10.998V7.3125C49.0845 5.3731 48.3141 3.51314 46.9427 2.14178C45.5713 0.770422 43.7114 0 41.772 0L36.897 0C34.9576 0 33.0976 0.770422 31.7263 2.14178C30.3549 3.51314 29.5845 5.3731 29.5845 7.3125V11.0297C25.3126 12.5423 21.6135 15.3399 18.995 19.0386C16.3764 22.7373 14.9668 27.1557 14.9595 31.6875V48.75H12.522C9.29083 48.7539 6.19314 50.0391 3.90838 52.3239C1.62362 54.6087 0.338343 57.7064 0.334473 60.9375L0.334473 70.6875C0.334473 72.6269 1.10489 74.4869 2.47625 75.8582C3.84761 77.2296 5.70758 78 7.64697 78H71.022C72.9614 78 74.8213 77.2296 76.1927 75.8582C77.564 74.4869 78.3345 72.6269 78.3345 70.6875V60.9375C78.3306 57.7064 77.0453 54.6087 74.7606 52.3239C72.4758 50.0391 69.3781 48.7539 66.147 48.75ZM5.20947 70.6875V60.9375C5.20947 58.9981 5.97989 57.1381 7.35125 55.7668C8.72261 54.3954 10.5826 53.625 12.522 53.625H14.9595V73.125H7.64697C7.00051 73.125 6.38052 72.8682 5.9234 72.4111C5.46628 71.954 5.20947 71.334 5.20947 70.6875ZM19.8345 51.1875V31.6875C19.8415 27.8353 21.1503 24.0985 23.5486 21.0839C25.9469 18.0692 29.2937 15.9537 33.0457 15.0808C33.4723 14.9833 33.9037 14.9029 34.3327 14.8371C34.5277 14.8078 34.7203 14.7713 34.9153 14.7469C35.573 14.6688 36.2346 14.6281 36.897 14.625C37.5434 14.625 38.1634 14.3682 38.6205 13.9111C39.0777 13.454 39.3345 12.834 39.3345 12.1875C39.3345 11.541 39.0777 10.921 38.6205 10.4639C38.1634 10.0068 37.5434 9.75 36.897 9.75C36.1103 9.75199 35.3243 9.79593 34.5423 9.88163C34.5155 9.88163 34.4863 9.88163 34.4595 9.88163V7.3125C34.4595 6.66603 34.7163 6.04605 35.1734 5.58893C35.6305 5.13181 36.2505 4.875 36.897 4.875H41.772C42.4184 4.875 43.0384 5.13181 43.4955 5.58893C43.9527 6.04605 44.2095 6.66603 44.2095 7.3125V12.7969C44.2095 12.8603 44.2412 12.9139 44.246 12.9748C44.2613 13.1405 44.2948 13.304 44.346 13.4623C44.3814 13.6029 44.4296 13.7399 44.4898 13.8718C44.5688 14.0165 44.661 14.1536 44.7652 14.2813C44.8502 14.3948 44.9448 14.5008 45.048 14.5982C45.1749 14.7046 45.313 14.797 45.4599 14.8736C45.5866 14.9512 45.7205 15.0165 45.8597 15.0686C45.923 15.0906 45.9718 15.1393 46.04 15.1564C49.7039 16.103 52.9491 18.2407 55.2652 21.2332C57.5813 24.2258 58.8369 27.9034 58.8345 31.6875V48.75H27.147C26.5005 48.75 25.8805 49.0068 25.4234 49.4639C24.9663 49.921 24.7095 50.541 24.7095 51.1875C24.7095 51.834 24.9663 52.454 25.4234 52.9111C25.8805 53.3682 26.5005 53.625 27.147 53.625H58.8345V73.125H19.8345V51.1875ZM73.4595 70.6875C73.4595 71.334 73.2027 71.954 72.7455 72.4111C72.2884 72.8682 71.6684 73.125 71.022 73.125H63.7095V53.625H66.147C68.0864 53.625 69.9463 54.3954 71.3177 55.7668C72.689 57.1381 73.4595 58.9981 73.4595 60.9375V70.6875Z" fill="#458A5D"/>
<path d="M51.522 58.5H27.147C26.5005 58.5 25.8805 58.7568 25.4234 59.2139C24.9663 59.671 24.7095 60.291 24.7095 60.9375C24.7095 61.584 24.9663 62.204 25.4234 62.6611C25.8805 63.1182 26.5005 63.375 27.147 63.375H29.5845V65.8125C29.5845 66.459 29.8413 67.079 30.2984 67.5361C30.7555 67.9932 31.3755 68.25 32.022 68.25C32.6684 68.25 33.2884 67.9932 33.7455 67.5361C34.2027 67.079 34.4595 66.459 34.4595 65.8125V63.375H51.522C52.1684 63.375 52.7884 63.1182 53.2455 62.6611C53.7027 62.204 53.9595 61.584 53.9595 60.9375C53.9595 60.291 53.7027 59.671 53.2455 59.2139C52.7884 58.7568 52.1684 58.5 51.522 58.5Z" fill="#458A5D"/>
<path d="M39.3345 39C41.2628 39 43.1479 38.4282 44.7513 37.3568C46.3547 36.2855 47.6043 34.7627 48.3423 32.9812C49.0803 31.1996 49.2733 29.2392 48.8971 27.3479C48.5209 25.4566 47.5923 23.7193 46.2288 22.3557C44.8652 20.9922 43.1279 20.0636 41.2366 19.6873C39.3453 19.3111 37.3849 19.5042 35.6033 20.2422C33.8217 20.9801 32.299 22.2298 31.2276 23.8332C30.1563 25.4366 29.5845 27.3216 29.5845 29.25C29.5845 31.8359 30.6117 34.3158 32.4402 36.1443C34.2687 37.9728 36.7486 39 39.3345 39ZM39.3345 24.375C40.2987 24.375 41.2412 24.6609 42.0429 25.1966C42.8446 25.7323 43.4694 26.4936 43.8384 27.3844C44.2074 28.2752 44.3039 29.2554 44.1158 30.2011C43.9277 31.1467 43.4634 32.0154 42.7816 32.6972C42.0998 33.3789 41.2312 33.8432 40.2855 34.0313C39.3399 34.2194 38.3597 34.1229 37.4689 33.7539C36.5781 33.3849 35.8167 32.7601 35.2811 31.9584C34.7454 31.1567 34.4595 30.2142 34.4595 29.25C34.4595 27.9571 34.9731 26.7171 35.8873 25.8029C36.8016 24.8886 38.0415 24.375 39.3345 24.375Z" fill="#458A5D"/>
</svg>
