<svg width="65" height="65" viewBox="0 0 65 65" fill="none" xmlns="http://www.w3.org/2000/svg">
<circle cx="32.5" cy="32.5" r="32.5" fill="#1C6335"/>
<path fill-rule="evenodd" clip-rule="evenodd" d="M43.3332 22.0833H20.6665C19.8841 22.0833 19.2498 22.7176 19.2498 23.5V40.5C19.2498 41.2824 19.8841 41.9167 20.6665 41.9167H43.3332C44.1156 41.9167 44.7498 41.2824 44.7498 40.5V23.5C44.7498 22.7176 44.1156 22.0833 43.3332 22.0833ZM20.6665 19.25C18.3193 19.25 16.4165 21.1528 16.4165 23.5V40.5C16.4165 42.8473 18.3193 44.75 20.6665 44.75H43.3332C45.6804 44.75 47.5832 42.8473 47.5832 40.5V23.5C47.5832 21.1528 45.6804 19.25 43.3332 19.25H20.6665Z" fill="white"/>
<path fill-rule="evenodd" clip-rule="evenodd" d="M22.4114 25.4263C22.9123 24.8252 23.8056 24.744 24.4066 25.2449L31.0928 30.8167C31.6182 31.2544 32.3812 31.2544 32.9067 30.8167L39.5928 25.2449C40.1939 24.744 41.0872 24.8252 41.588 25.4263C42.0889 26.0273 42.0078 26.9206 41.4067 27.4215L34.7204 32.9932C33.1444 34.3068 30.8551 34.3068 29.2789 32.9932L22.5928 27.4215C21.9917 26.9206 21.9105 26.0273 22.4114 25.4263Z" fill="white"/>
</svg>
