<svg width="65" height="65" viewBox="0 0 65 65" fill="none" xmlns="http://www.w3.org/2000/svg">
<circle cx="32.5" cy="32.5" r="32.5" fill="#1C6335"/>
<path fill-rule="evenodd" clip-rule="evenodd" d="M21.5839 19.3325C23.4128 17.5037 26.4374 17.7187 27.9892 19.7877L30.5651 23.2223C31.834 24.9143 31.6658 27.2819 30.1703 28.7775L28.2711 30.6766C28.4552 31.1557 29.061 32.2069 30.9061 34.0519C32.7511 35.897 33.8025 36.5029 34.2816 36.6869L36.1806 34.7879C37.6762 33.2923 40.0439 33.124 41.7358 34.3931L45.1704 36.969C47.2394 38.5208 47.4544 41.5454 45.6255 43.3742C45.031 43.9688 44.9304 44.0693 43.9381 45.0616C42.9269 46.0728 40.7798 47.018 38.6058 47.1125C35.204 47.2604 30.5832 45.7499 24.8957 40.0624C19.2083 34.3749 17.6977 29.7541 17.8456 26.3522C17.9279 24.4599 18.5295 22.3814 19.9045 21.0279C20.8888 20.0277 21.0168 19.8997 21.5839 19.3325ZM20.6763 26.4753C20.5738 28.8334 21.5676 32.7274 26.8992 38.059C32.2308 43.3906 36.1247 44.3844 38.4828 44.2818C40.6841 44.1861 41.865 43.1224 41.9347 43.0581L43.6221 41.3707C44.2317 40.7611 44.1601 39.7529 43.4704 39.2357L40.0358 36.6597C39.4718 36.2367 38.6826 36.2928 38.1841 36.7914C37.4331 37.5425 36.9203 38.0627 35.9167 39.0626C33.8319 41.1395 30.2632 37.416 28.9026 36.0555C27.6523 34.8052 23.842 31.1231 25.8935 29.0473C25.8976 29.0432 26.4501 28.4906 28.1668 26.774C28.6653 26.2755 28.7214 25.4863 28.2984 24.9223L25.7225 21.4877C25.2052 20.7981 24.197 20.7264 23.5874 21.336C23.0263 21.8971 22.3914 22.5321 21.9017 23.0251C20.8939 24.0398 20.7302 25.2349 20.6763 26.4753Z" fill="white"/>
</svg>
