<svg width="79" height="78" viewBox="0 0 79 78" fill="none" xmlns="http://www.w3.org/2000/svg">
<path d="M71.022 39H66.147C65.5005 39 64.8805 39.2568 64.4234 39.7139C63.9663 40.171 63.7095 40.791 63.7095 41.4375C63.7095 42.084 63.9663 42.704 64.4234 43.1611C64.8805 43.6182 65.5005 43.875 66.147 43.875H71.022C71.6684 43.875 72.2884 44.1318 72.7455 44.5889C73.2027 45.046 73.4595 45.666 73.4595 46.3125V73.125H58.8345V4.875H61.272C61.9184 4.875 62.5384 4.61819 62.9955 4.16107C63.4527 3.70395 63.7095 3.08397 63.7095 2.4375C63.7095 1.79103 63.4527 1.17105 62.9955 0.713927C62.5384 0.256807 61.9184 0 61.272 0L17.397 0C16.7505 0 16.1305 0.256807 15.6734 0.713927C15.2163 1.17105 14.9595 1.79103 14.9595 2.4375C14.9595 3.08397 15.2163 3.70395 15.6734 4.16107C16.1305 4.61819 16.7505 4.875 17.397 4.875H19.8345V73.125H5.20947V46.3125C5.20947 45.666 5.46628 45.046 5.9234 44.5889C6.38052 44.1318 7.00051 43.875 7.64697 43.875H12.522C13.1684 43.875 13.7884 43.6182 14.2455 43.1611C14.7027 42.704 14.9595 42.084 14.9595 41.4375C14.9595 40.791 14.7027 40.171 14.2455 39.7139C13.7884 39.2568 13.1684 39 12.522 39H7.64697C5.70758 39 3.84761 39.7704 2.47625 41.1418C1.10489 42.5131 0.334473 44.3731 0.334473 46.3125L0.334473 75.5625C0.334473 76.209 0.59128 76.829 1.0484 77.2861C1.50552 77.7432 2.12551 78 2.77197 78H36.897C37.5434 78 38.1634 77.7432 38.6205 77.2861C39.0777 76.829 39.3345 76.209 39.3345 75.5625C39.3345 74.916 39.0777 74.296 38.6205 73.8389C38.1634 73.3818 37.5434 73.125 36.897 73.125H34.4595V60.9375C34.4595 60.291 34.7163 59.671 35.1734 59.2139C35.6305 58.7568 36.2505 58.5 36.897 58.5H41.772C42.4184 58.5 43.0384 58.7568 43.4955 59.2139C43.9527 59.671 44.2095 60.291 44.2095 60.9375V75.5625C44.2095 76.209 44.4663 76.829 44.9234 77.2861C45.3805 77.7432 46.0005 78 46.647 78H75.897C76.5434 78 77.1634 77.7432 77.6205 77.2861C78.0777 76.829 78.3345 76.209 78.3345 75.5625V46.3125C78.3345 44.3731 77.564 42.5131 76.1927 41.1418C74.8213 39.7704 72.9614 39 71.022 39ZM41.772 53.625H36.897C34.9576 53.625 33.0976 54.3954 31.7263 55.7668C30.3549 57.1381 29.5845 58.9981 29.5845 60.9375V73.125H24.7095V4.875H53.9595V73.125H49.0845V60.9375C49.0845 58.9981 48.3141 57.1381 46.9427 55.7668C45.5713 54.3954 43.7114 53.625 41.772 53.625Z" fill="#EBECF0"/>
</svg>
