<svg width="79" height="78" viewBox="0 0 79 78" fill="none" xmlns="http://www.w3.org/2000/svg">
<path d="M66.147 48.75H63.7095V31.6875C63.7108 27.1498 62.3051 22.7234 59.6858 19.018C57.0665 15.3126 53.3626 12.5106 49.0845 10.998V7.3125C49.0845 5.3731 48.3141 3.51314 46.9427 2.14178C45.5713 0.770422 43.7114 0 41.772 0L36.897 0C34.9576 0 33.0976 0.770422 31.7263 2.14178C30.3549 3.51314 29.5845 5.3731 29.5845 7.3125V11.0297C25.3126 12.5423 21.6135 15.3399 18.995 19.0386C16.3764 22.7373 14.9668 27.1557 14.9595 31.6875V48.75H12.522C9.29083 48.7539 6.19314 50.0391 3.90838 52.3239C1.62362 54.6087 0.338343 57.7064 0.334473 60.9375L0.334473 70.6875C0.334473 72.6269 1.10489 74.4869 2.47625 75.8582C3.84761 77.2296 5.70758 78 7.64697 78H71.022C72.9614 78 74.8213 77.2296 76.1927 75.8582C77.564 74.4869 78.3345 72.6269 78.3345 70.6875V60.9375C78.3306 57.7064 77.0453 54.6087 74.7606 52.3239C72.4758 50.0391 69.3781 48.7539 66.147 48.75ZM5.20947 70.6875V60.9375C5.20947 58.9981 5.97989 57.1381 7.35125 55.7668C8.72261 54.3954 10.5826 53.625 12.522 53.625H14.9595V73.125H7.64697C7.00051 73.125 6.38052 72.8682 5.9234 72.4111C5.46628 71.954 5.20947 71.334 5.20947 70.6875ZM19.8345 51.1875V31.6875C19.8415 27.8353 21.1503 24.0985 23.5486 21.0839C25.9469 18.0692 29.2937 15.9537 33.0457 15.0808C33.4723 14.9833 33.9037 14.9029 34.3327 14.8371C34.5277 14.8078 34.7203 14.7713 34.9153 14.7469C35.573 14.6688 36.2346 14.6281 36.897 14.625C37.5434 14.625 38.1634 14.3682 38.6205 13.9111C39.0777 13.454 39.3345 12.834 39.3345 12.1875C39.3345 11.541 39.0777 10.921 38.6205 10.4639C38.1634 10.0068 37.5434 9.75 36.897 9.75C36.1103 9.75199 35.3243 9.79593 34.5423 9.88163C34.5155 9.88163 34.4863 9.88163 34.4595 9.88163V7.3125C34.4595 6.66603 34.7163 6.04605 35.1734 5.58893C35.6305 5.13181 36.2505 4.875 36.897 4.875H41.772C42.4184 4.875 43.0384 5.13181 43.4955 5.58893C43.9527 6.04605 44.2095 6.66603 44.2095 7.3125V12.7969C44.2095 12.8603 44.2412 12.9139 44.246 12.9748C44.2613 13.1405 44.2948 13.304 44.346 13.4623C44.3814 13.6029 44.4296 13.7399 44.4898 13.8718C44.5688 14.0165 44.661 14.1536 44.7652 14.2813C44.8502 14.3948 44.9448 14.5008 45.048 14.5982C45.1749 14.7046 45.313 14.797 45.4599 14.8736C45.5866 14.9512 45.7205 15.0165 45.8597 15.0686C45.923 15.0906 45.9718 15.1393 46.04 15.1564C49.7039 16.103 52.9491 18.2407 55.2652 21.2332C57.5813 24.2258 58.8369 27.9034 58.8345 31.6875V48.75H27.147C26.5005 48.75 25.8805 49.0068 25.4234 49.4639C24.9663 49.921 24.7095 50.541 24.7095 51.1875C24.7095 51.834 24.9663 52.454 25.4234 52.9111C25.8805 53.3682 26.5005 53.625 27.147 53.625H58.8345V73.125H19.8345V51.1875ZM73.4595 70.6875C73.4595 71.334 73.2027 71.954 72.7455 72.4111C72.2884 72.8682 71.6684 73.125 71.022 73.125H63.7095V53.625H66.147C68.0864 53.625 69.9463 54.3954 71.3177 55.7668C72.689 57.1381 73.4595 58.9981 73.4595 60.9375V70.6875Z" fill="#458A5D"/>
</svg>
