<svg width="25" height="24" viewBox="0 0 25 24" fill="none" xmlns="http://www.w3.org/2000/svg">
<g clip-path="url(#clip0)">
<path d="M12.3799 0V1.40625C18.1958 1.40625 22.9268 6.13725 22.9268 11.9531H24.333C24.333 5.36203 18.971 0 12.3799 0Z" fill="#EBECF0"/>
<path d="M12.3799 4.21875V5.625C15.8694 5.625 18.708 8.46361 18.708 11.9531H20.1143C20.1143 7.68839 16.6447 4.21875 12.3799 4.21875Z" fill="#EBECF0"/>
<path d="M12.3799 9.84375C13.543 9.84375 14.4893 10.79 14.4893 11.9531H15.8955C15.8955 10.0147 14.3183 8.4375 12.3799 8.4375V9.84375Z" fill="#EBECF0"/>
<path d="M16.5519 24H17.2551V18.5755L12.3394 16.8939L10.2575 18.2823C8.44608 17.4583 6.88242 15.8477 6.05845 14.0364L7.44614 11.9545L5.76525 7.03125H0.498698C0.455526 7.45875 0.355682 8.08927 0.337917 9.05686C0.271729 12.6519 1.5389 16.243 3.92372 18.9195C5.98842 21.237 9.89424 24 16.5519 24Z" fill="#EBECF0"/>
</g>
<defs>
<clipPath id="clip0">
<rect width="24" height="24" fill="white" transform="translate(0.334473)"/>
</clipPath>
</defs>
</svg>
