<svg width="80" height="61" viewBox="0 0 80 61" fill="none" xmlns="http://www.w3.org/2000/svg">
<path d="M77.9098 18.3882L40.8786 1.10699C40.5516 0.954348 40.1951 0.875244 39.8343 0.875244C39.4734 0.875244 39.117 0.954348 38.79 1.10699L1.75874 18.3882C1.33326 18.587 0.973295 18.903 0.721106 19.2992C0.468916 19.6954 0.334961 20.1553 0.334961 20.6249C0.334961 21.0946 0.468916 21.5544 0.721106 21.9506C0.973295 22.3468 1.33326 22.6628 1.75874 22.8616L15.1468 29.11V47.7812C15.1468 54.8196 25.7624 60.1249 39.8343 60.1249C53.9061 60.1249 64.5218 54.8196 64.5218 47.7812V29.11L69.4593 26.8042V40.3749C69.4593 41.0297 69.7194 41.6576 70.1823 42.1206C70.6453 42.5836 71.2733 42.8437 71.928 42.8437C72.5828 42.8437 73.2107 42.5836 73.6737 42.1206C74.1367 41.6576 74.3968 41.0297 74.3968 40.3749V24.5009L77.9098 22.8616C78.3353 22.6628 78.6952 22.3468 78.9474 21.9506C79.1996 21.5544 79.3336 21.0946 79.3336 20.6249C79.3336 20.1553 79.1996 19.6954 78.9474 19.2992C78.6952 18.903 78.3353 18.587 77.9098 18.3882ZM59.5843 47.7812C59.5843 50.8029 51.8916 55.1874 39.8343 55.1874C27.7769 55.1874 20.0843 50.8029 20.0843 47.7812V31.4134L38.79 40.1429C39.117 40.2955 39.4734 40.3746 39.8343 40.3746C40.1951 40.3746 40.5516 40.2955 40.8786 40.1429L53.2223 34.3808C53.8054 34.0976 54.2537 33.5965 54.4704 32.9856C54.6871 32.3747 54.6549 31.7031 54.3807 31.1157C54.1065 30.5284 53.6122 30.0725 53.0047 29.8464C52.3972 29.6203 51.7252 29.6422 51.1337 29.9074L39.8343 35.1905L8.63915 20.6249L39.8343 6.0593L71.0269 20.6249L61.0087 25.3007C60.5442 25.5206 60.1608 25.8814 59.913 26.3317C59.6653 26.782 59.5658 27.2989 59.6287 27.809C59.6101 27.8822 59.5953 27.9564 59.5843 28.0312V47.7812Z" fill="#EBECF0"/>
</svg>
